<svg id="vector" xmlns="http://www.w3.org/2000/svg" width="24" height="24" viewBox="0 0 24 24"><path fill="#FFFF" fill-rule="nonzero" d="M11.999,12.9072C15.796,12.9072 18.875,15.4721 18.875,18.2372L18.875,18.2372L18.875,19.0112C18.875,19.5571 18.381,20.0002 17.772,20.0002L17.772,20.0002L6.227,20.0002C5.618,20.0002 5.125,19.5571 5.125,19.0112L5.125,19.0112L5.125,18.2372C5.125,15.4721 8.203,12.9072 11.999,12.9072ZM11.999,3.9999C14.025,3.9999 15.668,5.6418 15.668,7.6688C15.668,9.6948 14.025,11.3369 11.999,11.3369C9.974,11.3369 8.331,9.6948 8.331,7.6688C8.331,5.6418 9.974,3.9999 11.999,3.9999Z" stroke-width="1" stroke="#00000000" id="path_0"/></svg>