<svg width="24" height="24" viewBox="0 0 24 24" fill="none" xmlns="http://www.w3.org/2000/svg">
<mask id="mask0_938_507" style="mask-type:alpha" maskUnits="userSpaceOnUse" x="0" y="0" width="24" height="24">
<rect width="24" height="24" fill="#D9D9D9"/>
</mask>
<g mask="url(#mask0_938_507)">
<path d="M10.5 15C10.2167 15 9.97917 14.9042 9.7875 14.7125C9.59583 14.5208 9.5 14.2833 9.5 14V13H11V13.5H13V12.5H10.5C10.2167 12.5 9.97917 12.4042 9.7875 12.2125C9.59583 12.0208 9.5 11.7833 9.5 11.5V10C9.5 9.71667 9.59583 9.47917 9.7875 9.2875C9.97917 9.09583 10.2167 9 10.5 9H13.5C13.7833 9 14.0208 9.09583 14.2125 9.2875C14.4042 9.47917 14.5 9.71667 14.5 10V11H13V10.5H11V11.5H13.5C13.7833 11.5 14.0208 11.5958 14.2125 11.7875C14.4042 11.9792 14.5 12.2167 14.5 12.5V14C14.5 14.2833 14.4042 14.5208 14.2125 14.7125C14.0208 14.9042 13.7833 15 13.5 15H10.5ZM17 15C16.7167 15 16.4792 14.9042 16.2875 14.7125C16.0958 14.5208 16 14.2833 16 14V13H17.5V13.5H19.5V12.5H17C16.7167 12.5 16.4792 12.4042 16.2875 12.2125C16.0958 12.0208 16 11.7833 16 11.5V10C16 9.71667 16.0958 9.47917 16.2875 9.2875C16.4792 9.09583 16.7167 9 17 9H20C20.2833 9 20.5208 9.09583 20.7125 9.2875C20.9042 9.47917 21 9.71667 21 10V11H19.5V10.5H17.5V11.5H20C20.2833 11.5 20.5208 11.5958 20.7125 11.7875C20.9042 11.9792 21 12.2167 21 12.5V14C21 14.2833 20.9042 14.5208 20.7125 14.7125C20.5208 14.9042 20.2833 15 20 15H17ZM4 15C3.71667 15 3.47917 14.9042 3.2875 14.7125C3.09583 14.5208 3 14.2833 3 14V10C3 9.71667 3.09583 9.47917 3.2875 9.2875C3.47917 9.09583 3.71667 9 4 9H7C7.28333 9 7.52083 9.09583 7.7125 9.2875C7.90417 9.47917 8 9.71667 8 10V11H6.5V10.5H4.5V13.5H6.5V13H8V14C8 14.2833 7.90417 14.5208 7.7125 14.7125C7.52083 14.9042 7.28333 15 7 15H4Z" fill="white"/>
</g>
</svg>
