<svg id="vector" xmlns="http://www.w3.org/2000/svg" width="24" height="24" viewBox="0 0 24 24"><path fill="#FFFF" fill-rule="evenodd" d="M 18.982 9.3544 L 12.774000000000001 4.0724 C 12.349 3.7234 11.652000000000001 3.7234 11.227 4.0724 L 5.018000000000001 9.3544 C 4.5920000000000005 9.7034 4.244 10.4374 4.244 10.987400000000001 L 4.244 17.6894 C 4.244 19.0644 5.369 20.1894 6.744 20.1894 L 8.875 20.1894 L 8.875 14.2664 C 8.875 13.441400000000002 9.55 12.7664 10.375 12.7664 L 13.375 12.7664 C 14.2 12.7664 14.875 13.441400000000002 14.875 14.2664 L 14.875 20.1894 L 17.256 20.1894 C 18.631 20.1894 19.756 19.0644 19.756 17.6894 L 19.756 10.987400000000001 C 19.756 10.4374 19.408 9.7034 18.982 9.3544 " stroke-width="1.0" stroke="#00000000" id="path_0"/></svg>