<?xml version="1.0"?><svg version="1.2" baseProfile="tiny-ps" viewBox="0 0 300 300" xmlns="http://www.w3.org/2000/svg" xmlns:xlink="http://www.w3.org/1999/xlink"><title>That Josh Guy</title><g><g fill="#ecf7e1" transform="matrix(.1 0 0 -.1 0 300)"><path d="M0 1500V0h3000v3000H0V1500z"/></g><g fill="#dff2d4" transform="matrix(.1 0 0 -.1 0 300)"><path d="m1664 2082 7-12-7-11-6-11-9 13-9 14v-12c0-17-18-16-36 2-9 8-24 15-35 15h-20l5-8 5-9h-28l5 9 5 8-15-6c-9-3-16-10-16-15s-5-9-11-9h-10l5 9 6 9-16 6-16 6 6-15 5-15h-7c-4 0-16 7-26 15-21 16-40 20-32 7l5-9-19 2c-11 1-22 4-26 7-3 4-24 0-46-8-48-17-48-17-48-3v10l13-7 12-7-8 8c-4 5-15 10-23 11-9 1-13 0-10-3 7-7-19-33-34-33h-11l6 9 5 9-17 4c-18 4-67-10-90-25l-13-8 6 15 6 16h-9c-5 0-19-9-31-20-27-26-41-25-52 3l-9 22-1-30-1-30-10 23-9 23-10-6c-5-3-10-8-10-11s5-2 12 2l11 7-6-10c-4-6-16-13-27-16l-20-5v22l-12-12c-7-7-22-12-34-12h-22l-5 13-5 12-1-12-1-13H730v-63l-19 17-19 17-6-16-6-16 12 7 11 7-7-11c-10-17-24-15-29 6l-5 17-1-25-1-25-10 15-10 15v-23l-22 6-21 5 6-17 7-16-21 11-21 11 6-10 6-10-32-8c-18-4-44-8-56-10-13-1-32-10-43-20-11-9-31-19-44-20l-25-3 6 12c3 7-3 1-14-12l-19-24-12 7-11 7-25-28-24-28-1 16v16h-30l12-14c13-16 8-22-21-28l-21-4v10c0 5-4 9-10 9-5 0-9-3-8-7 1-5-4-18-12-30l-14-22-13 11-13 10-16-6-16-6 4-18 5-17H65l1-17 2-17-19 10-19 10-6-16-6-15-9 6-9 5V0h3000v830l-1 830h-20l5 9 6 9-18 8c-9 4-20 6-24 6-5-1-8 3-8 9v11l-17-13-17-14 8 13 7 12-13 1c-7 1-16 1-20 0-5 0-8 5-8 12 0 8-9 22-20 32l-21 19-34-1-35-1 5 9 6 8-26 7-25 6 7 12 6 11-14-12c-7-7-20-13-29-12l-15 1 12 5 13 5-14 14c-17 16-30 19-21 4l6-10-15 6c-9 3-16 10-16 14 0 5-8 7-17 6l-18-3-14 14-14 14-13-5-13-5-8 12c-8 12-28 18-73 20-14 1-30 7-37 13l-12 12 7 6 6 7-17-7-17-6v21l-17-6-16-6 6 10 6 10-24-5-25-4v17l-37 1-37 1-4 11-4 12-9-6-9-5v9c0 6-7 12-14 15l-15 6 5-14 6-13-17 2c-9 1-21 9-26 17l-9 14v-11c0-7-7-14-14-17l-15-6 5 13 5 13-16 7-16 6 7-13 8-12-18 15c-10 8-30 16-45 18l-26 3 20-16 20-17-28 17-29 17-14-6-14-5v17l-30-4-30-5v22l12-7 11-7-7 12-8 12-13-11-13-11-7 11-6 10-20-10-19-11v10c0 5 6 12 13 15l12 5-30-3c-16-2-39 0-50 4l-20 8-24-22-24-21 13 25 13 25-21-19-22-19-36 28c-21 16-34 23-30 17zm166-52c0-5-4-10-10-10-5 0-10 5-10 10 0 6 5 10 10 10 6 0 10-4 10-10zm1019-276c7-6-21-34-33-34l-11 1 20 16 20 15-22-5-23-5v29l23-7c12-3 24-8 26-10zm-2739-58c0-2-7-7-16-10l-15-6 6 10c6 10 25 14 25 6zm67 77c-4-3-7-11-7-17v-10l12 12c6 6 9 14 7 17-3 3-9 2-12-2z"/></g><g fill="#d4edc9" transform="matrix(.1 0 0 -.1 0 300)"><path d="M730 1920v-90h320v-687l-34-10-34-11-11 11-11 11v-21c0-12-4-25-10-28l-10-6 5 13 5 14h-40v-28l-14 5-15 6-5-12-6-12-6 13c-3 6-10 12-15 12h-10l6-10 6-10-16 6-16 7-6-22c-6-22-23-29-23-10v11l-15-12-15-12v27l-9-15c-6-8-8-17-5-21 2-4 0-10-6-14l-10-6v33l-16-6c-9-3-20-6-25-6s-14-11-19-25l-10-26-12 3c-7 1-24-4-37-11l-24-13 14-9 14-9h-17c-9 0-18 5-20 11l-3 10-18-7-18-7 5-12 5-13-15-6c-24-9-27-7-14 9 19 23 3 18-20-7-11-12-20-18-20-13 0 4-9 0-19-9l-20-18-11 7-10 6-15-33-14-33-1 20-1 20-11-22-11-23-16-2c-9 0-22-1-29-1l-13 1-11-23-10-23-13 5-13 4-7-20c-6-19-17-25-37-22-5 0-8-6-8-14v-15h-40v-21l12 7 11 7-7-11-7-11-15 6-16 6-9-14-9-14 6-20 6-20-17 20-17 20 6-18 5-17H99l5-8 5-8-32-19c-18-10-42-28-54-39L0 545V0h3000v269c0 265-3 301-22 301h-9l6-10 6-10h-21l-6 29-6 30-15 5-14 6 7-12 7-11-11 7c-7 4-12 12-12 17s-9 19-20 31-20 19-20 15-9 1-20 10c-11 10-20 24-20 33v15l-8-13-8-12-14 25-14 25-7-11-7-12-17 16-16 17 18 1 18 1-40 13c-22 8-33 14-25 15l15 1-17 10c-10 5-18 15-18 22s-12 17-26 24l-25 12-6-15-5-15-13 18-13 18 6 10c3 5-2 4-11-4l-17-14 6 18 7 17-20-6-20-6-13 15c-7 8-9 15-6 15 4 0 1 6-6 14s-16 12-20 10c-3-2-20 4-37 13l-31 18 5 13 4 12h-18c-10 0-24-7-31-15s-18-15-25-15h-12v28l16-6 16-5-19 22-20 21-8-12-8-13v24l-27-5-28-5 15 13c8 7 13 12 11 11-2-2-10 2-18 8-7 6-13 8-13 5 0-4-10-2-21 5l-21 11 8-14 8-13-15 11-14 10-27-2-28-3v21l20-5 20-5v8c0 4-15 10-34 12l-35 4 5-7 4-7-17 3c-10 2-24 4-30 4l-13 1 3 19c2 11 17 36 35 57 42 49 77 124 96 208l16 67v129l-257-2-258-3v-170l148-3 147-3v-9c0-23-22-62-56-100l-37-41-44-20-43-20-68-1c-37-1-76 1-87 4l-20 5 3 32 2 31h-30v-24l-11 11-11 11-34-8-35-8-12 12c-6 7-20 15-29 19l-18 6v29c0 15-5 33-11 39-15 15-39 112-39 159v41l22 59 22 59 3 173 4 172H730v-90zm591-137c-16-27-36-61-44-78l-16-30-1 78v77h90l-29-47zm-10-553c3-3 11-15 18-27l12-23h-18c-10 0-28 3-40 6l-23 6v133l23-45c12-25 25-47 28-50zm979-196c0-2-4-5-9-9l-10-5-5 8-5 9h14c8 0 15-2 15-3zm-1597-24 5-20-9 6c-5 3-9 12-9 20 0 20 7 17 13-6zm1992-208c-2-2-9-1-14 3l-11 6 6 11 7 10 8-13c4-7 6-15 4-17zM250 730c0-5-5-10-11-10h-10l6 10c3 6 8 10 11 10 2 0 4-4 4-10zm1425 1268c-3-8-5-52-3-97l3-82 90-2 90-3 49-24c27-14 65-40 84-59l34-33 69 68 69 68-33 34c-37 39-116 86-190 114l-52 19-102 6-103 6-5-15zm440-897-5-10 8-5 9-5v14c0 17-3 19-12 6z"/></g><g fill="#88a281" transform="matrix(.1 0 0 -.1 0 300)"><path d="M740 1920v-90h320v-830l98 1h97l-25 11c-59 24-93 44-128 74l-37 33 62 62 61 62 34-28 33-28 5 71 5 72 33-64c18-35 41-71 50-79l17-16 40 18 40 18 18 31c24 42 23 76-3 147l-22 60 4 75 5 75 21 49 22 49v317H740v-90zm603-112c-12-13-35-50-51-83l-31-60-1 83v82h103l-20-22zm355 195-18-4v-181l38 5c20 2 63 0 96-5l58-9 47-23c25-13 57-36 70-50 14-14 29-26 36-26 6 0 37 27 70 60l59 60-43 44-43 44-65 32-66 31-74 15c-73 14-130 16-165 7zm39-449c-4-4-7-43-7-86v-78l38-1c20-1 87-4 149-8l112-6-20-45c-11-25-34-60-52-78l-31-32-55-21-56-21-83 3-83 3-28-43c-16-23-43-55-61-70l-33-27 29-12c16-6 47-16 69-21l40-11h167l61 16c85 22 132 48 198 111l57 54 31 63c37 75 51 137 54 236l2 75-246 3-245 2-7-6z"/></g><g fill="#1c401c" transform="matrix(.1 0 0 -.1 0 300)"><path d="M740 1915v-85h320v-702l66 62 66 62 29-28 29-28v179l40-80c22-44 46-88 54-99l15-18 24 6c13 3 36 15 50 26l27 21 11 38 11 38-21 57-21 57v174l19 41 19 41 7 161 7 162H740v-85zm606-107c-9-13-34-59-56-103l-39-80-1 103v102h112l-16-22zm334 105v-88l59 3 60 4 58-17c58-17 97-39 143-81l26-24 63 64 63 63-48 41c-57 49-131 86-210 107l-58 15h-156v-87zm60-443v-80h290v-17c0-10-13-40-28-68l-27-50-48-32-47-32-57-11-57-12-57 6-58 7-12-22c-6-13-32-44-56-70l-45-48 54-16c29-8 85-18 123-21l70-6 75 16 75 16 55 27 55 27 45 45c25 25 58 67 73 93l28 48 19 77 20 76v127h-490v-80zm-680-408v-62h88l87 1-49 24c-27 13-66 40-87 61l-39 38v-62z"/></g></g></svg>