<svg width="24" height="24" viewBox="0 0 24 24" fill="none" xmlns="http://www.w3.org/2000/svg">
<path fill-rule="evenodd" clip-rule="evenodd" d="M8.02437 4.54102L8.16937 4.54692C9.07807 4.62122 9.79737 5.38782 9.79737 6.31402V17.685C9.79737 18.661 9.00037 19.459 8.02437 19.459C7.04737 19.459 6.25037 18.661 6.25037 17.685V6.31402C6.25037 5.33902 7.04737 4.54102 8.02437 4.54102ZM15.9756 4.54102L16.1206 4.54692C17.0294 4.62122 17.7496 5.38782 17.7496 6.31402V17.685C17.7496 18.661 16.9516 19.459 15.9756 19.459C14.9996 19.459 14.2026 18.661 14.2026 17.685V6.31402C14.2026 5.33902 14.9996 4.54102 15.9756 4.54102Z" fill="white"/>
</svg>
