<svg width="24" height="24" viewBox="0 0 24 24" fill="none" xmlns="http://www.w3.org/2000/svg">
<path fill-rule="evenodd" clip-rule="evenodd" d="M18.1536 19.7385C18.5676 19.7385 18.9036 20.0745 18.9036 20.4885C18.9036 20.9025 18.5676 21.2385 18.1536 21.2385H5.84656C5.43256 21.2385 5.09656 20.9025 5.09656 20.4885C5.09656 20.0745 5.43256 19.7385 5.84656 19.7385H18.1536ZM12.0092 2.76151C12.4232 2.76151 12.7592 3.09751 12.7592 3.51151V15.5725L16.6172 11.5485C16.9032 11.2485 17.3782 11.2385 17.6782 11.5255C17.9772 11.8115 17.9862 12.2865 17.7002 12.5865L13.1612 17.3215C12.8602 17.6355 12.4362 17.8165 12.0002 17.8165C11.5642 17.8165 11.1412 17.6355 10.8392 17.3215L6.30016 12.5865C6.01416 12.2865 6.02416 11.8115 6.32216 11.5255C6.62216 11.2385 7.09616 11.2485 7.38316 11.5485L11.2592 15.5915V3.51151C11.2592 3.09751 11.5952 2.76151 12.0092 2.76151Z" fill="white"/>
</svg>
