<svg width="24" height="24" viewBox="0 0 24 24" fill="none" xmlns="http://www.w3.org/2000/svg">
<path d="M11.7197 5.30199C12.3336 4.75123 12.834 4.97513 12.834 5.80004V18.55C12.834 19.3749 12.3336 19.5978 11.7197 19.0471L7.12793 15.1721H4.5C3.6712 15.1719 3.00006 14.4999 3 13.6721V10.6721C3 9.84423 3.67117 9.17231 4.5 9.17211H7.13184L11.7197 5.30199Z" fill="white"/>
<path d="M17.1367 5.66527C17.4184 5.36162 17.8936 5.34352 18.1973 5.62523C22.0876 9.235 22.0879 15.1152 18.1973 18.7248C17.8937 19.0064 17.4184 18.9881 17.1367 18.6848C16.8554 18.3812 16.8734 17.9068 17.1768 17.6252C20.4278 14.6091 20.4275 9.74111 17.1768 6.72484C16.8733 6.44328 16.8555 5.96893 17.1367 5.66527Z" fill="white"/>
<path d="M15.0059 8.53441C15.2906 8.23368 15.7656 8.22049 16.0664 8.50512C18.2015 10.527 18.2018 13.8232 16.0664 15.845C15.7657 16.1294 15.2906 16.116 15.0059 15.8157C14.7213 15.5149 14.7345 15.0399 15.0352 14.7551C16.5453 13.3251 16.5451 11.0251 15.0352 9.59496C14.7345 9.31027 14.7213 8.83521 15.0059 8.53441Z" fill="white"/>
</svg>
