<svg width="24" height="24" viewBox="0 0 24 24" fill="none" xmlns="http://www.w3.org/2000/svg">
<path d="M13.7197 5.30199C14.3336 4.75123 14.834 4.97513 14.834 5.80004V18.55C14.834 19.3749 14.3336 19.5978 13.7197 19.0471L9.12793 15.1721H6.5C5.6712 15.1719 5.00006 14.4999 5 13.6721V10.6721C5 9.84423 5.67117 9.17231 6.5 9.17211H9.13184L13.7197 5.30199Z" fill="white"/>
<path d="M17.0059 8.53441C17.2906 8.23368 17.7656 8.22049 18.0664 8.50512C20.2015 10.527 20.2018 13.8232 18.0664 15.845C17.7657 16.1294 17.2906 16.116 17.0059 15.8157C16.7213 15.5149 16.7345 15.0399 17.0352 14.7551C18.5453 13.3251 18.5451 11.0251 17.0352 9.59496C16.7345 9.31027 16.7213 8.83521 17.0059 8.53441Z" fill="white"/>
</svg>
