<svg width="24" height="24" viewBox="0 0 24 24" fill="none" xmlns="http://www.w3.org/2000/svg">
<path d="M11.7197 5.30199C12.3336 4.75123 12.834 4.97513 12.834 5.80004V18.55C12.834 19.3749 12.3336 19.5978 11.7197 19.0471L7.12793 15.1721H4.5C3.6712 15.1719 3.00006 14.4999 3 13.6721V10.6721C3 9.84423 3.67117 9.17231 4.5 9.17211H7.13184L11.7197 5.30199Z" fill="white"/>
<path d="M18.3613 10.0539C19.0684 9.34684 20.129 10.4074 19.4219 11.1145L18.3613 12.175L19.4219 13.2356C20.129 13.9427 19.0684 15.0032 18.3613 14.2961L17.3008 13.2356L16.2402 14.2961C15.5331 15.0032 14.4726 13.9427 15.1797 13.2356L16.2402 12.175L15.1797 11.1145C14.4726 10.4074 15.5331 9.34684 16.2402 10.0539L17.3008 11.1145L18.3613 10.0539Z" fill="white"/>
</svg>
