<svg width="151" height="171" viewBox="0 0 151 171" fill="none" xmlns="http://www.w3.org/2000/svg">
<path d="M33.8434 135.542V42.2892H52.4127V135.542H33.8434ZM3.48193 56.6566V40.256H82.7741V56.6566H3.48193Z" fill="#5C728D"/>
<path d="M99.3381 135.29C92.694 135.29 86.4484 134.105 80.6015 131.736C74.8433 129.279 69.7493 125.857 65.3199 121.47C60.979 117.083 57.5684 112.038 55.0879 106.334C52.696 100.543 51.5 94.3138 51.5 87.645C51.5 80.8887 52.7402 74.6589 55.2207 68.9555C57.7013 63.1644 61.1562 58.1192 65.5857 53.8197C70.0151 49.4325 75.1976 46.0543 81.1331 43.6852C87.0686 41.2284 93.4913 40 100.401 40C108.108 40 115.195 41.4478 121.663 44.3433C128.13 47.1511 133.489 51.1435 137.742 56.3204L125.516 68.4291C122.593 64.656 118.961 61.7605 114.62 59.7424C110.279 57.7243 105.495 56.7152 100.268 56.7152C94.3326 56.7152 89.0618 58.0314 84.4552 60.6637C79.9371 63.2083 76.3935 66.8058 73.8245 71.4562C71.2554 76.0189 69.9708 81.3713 69.9708 87.5134C69.9708 93.6558 71.2111 99.0956 73.6916 103.834C76.2606 108.484 79.7156 112.126 84.0565 114.758C88.4859 117.39 93.5353 118.706 99.2053 118.706C105.052 118.706 110.058 117.653 114.221 115.548C118.385 113.354 121.574 110.195 123.789 106.071C126.004 101.86 127.111 96.7265 127.111 90.6722L138.938 98.7007L98.1422 98.3059V82.7752H145.715V85.2759C145.715 96.3317 143.721 105.588 139.735 113.047C135.748 120.417 130.256 125.989 123.257 129.762C116.347 133.447 108.374 135.29 99.3381 135.29Z" fill="#5C728D"/>
<path d="M58.5392 136.57C52.756 136.57 47.6506 135.486 43.2229 133.317C38.8855 131.058 35.2711 128.031 32.3795 124.236L44.8494 112.308C46.4759 114.658 48.4187 116.465 50.6777 117.73C53.0271 118.905 55.6024 119.492 58.4036 119.492C61.2048 119.492 63.6446 118.905 65.7229 117.73C67.8916 116.555 69.5181 114.839 70.6024 112.58C71.7771 110.32 72.3645 107.564 72.3645 104.311L72.7263 39.8493H90.7304L90.9337 103.227C90.9337 109.914 89.5783 115.787 86.8675 120.848C84.247 125.817 80.497 129.703 75.6175 132.504C70.8283 135.215 65.1355 136.57 58.5392 136.57Z" fill="#1F1F1D"/>
</svg>
