<svg width="143" height="96" viewBox="0 0 143 96" fill="none" xmlns="http://www.w3.org/2000/svg">
<path d="M75.3723 90.7205C76.1039 91.0756 76.847 91.4141 77.6015 91.736C83.4484 94.105 89.694 95.29 96.3381 95.29C105.374 95.29 113.347 93.447 120.257 89.762C127.256 85.989 132.748 80.417 136.735 73.047C140.721 65.588 142.715 56.3317 142.715 45.2759V42.7752H95.1422V58.3059L123.381 58.5792C122.83 61.3366 121.966 63.834 120.789 66.071C118.574 70.195 115.385 73.354 111.221 75.548C107.058 77.653 102.052 78.706 96.2053 78.706C92.4029 78.706 88.8795 78.1141 85.6351 76.9304C85.1294 78.2863 84.5402 79.5922 83.8675 80.848C81.7637 84.8372 78.932 88.1284 75.3723 90.7205Z" fill="#5C728D"/>
<path fill-rule="evenodd" clip-rule="evenodd" d="M69.5343 34.0609C67.8253 38.0198 66.9708 42.5039 66.9708 47.5134C66.9708 52.4593 67.7749 56.9496 69.3832 60.985L69.3645 64.311C69.3645 67.564 68.7771 70.32 67.6024 72.58C66.5181 74.839 64.8916 76.555 62.7229 77.73C61.8581 78.219 60.9306 78.6061 59.9406 78.8915C56.7134 75.1372 54.0959 70.9515 52.0879 66.334C50.9024 63.4638 50.0106 60.4859 49.4127 57.4002V78.476C48.8213 78.2614 48.243 78.0127 47.6777 77.73C45.4187 76.465 43.4759 74.658 41.8494 72.308L30.8434 82.8357V16.6566H0.481934V0.256001H69.724L69.5343 34.0609ZM49.4127 37.9936C50.0328 34.8468 50.9688 31.8341 52.2207 28.9555C54.1751 24.3929 56.7342 20.2933 59.8983 16.6566H49.4127V37.9936Z" fill="#5C728D"/>
<path d="M87.7886 17.9916C90.7336 17.1407 93.8934 16.7152 97.268 16.7152C102.495 16.7152 107.279 17.7243 111.62 19.7424C115.961 21.7605 119.593 24.656 122.516 28.4291L134.742 16.3204C130.489 11.1435 125.13 7.1511 118.663 4.3433C112.195 1.4478 105.108 0 97.401 0C94.065 0 90.8426 0.286331 87.7336 0.858994L87.7886 17.9916Z" fill="#5C728D"/>
<path d="M30.8434 86.0218V95.542H46.4281C44.2298 95.0083 42.1614 94.2666 40.2229 93.317C36.5889 91.4244 33.4625 88.9926 30.8434 86.0218Z" fill="#5C728D"/>
</svg>
