<svg width="712" height="143" viewBox="0 0 712 143" fill="none" xmlns="http://www.w3.org/2000/svg">
<path d="M44.0454 106.419L62.984 78.4807C60.0798 80.2175 56.7342 81.0818 53.349 80.9697C38.8456 80.9697 28.0381 67.0514 28.0381 53.2601C28.0381 46.1486 31.0713 38.9101 35.8378 33.8304C38.3379 31.1264 41.3835 28.9796 44.7747 27.5308C48.166 26.082 51.8263 25.3639 55.5156 25.4236C70.5543 25.4236 82.5343 38.2497 82.5343 53.0316C82.5343 63.5972 77.7933 69.8706 72.2621 78.1759L53.349 106.419H44.0454ZM55.4136 72.9946C66.2211 73.528 74.5306 64.3592 74.5306 53.6919C74.5306 42.7706 66.6289 33.0685 55.4136 33.0685C50.21 33.1687 45.2563 35.311 41.6289 39.03C38.0016 42.749 35.9938 47.7442 36.0417 52.93C35.9398 63.7242 45.3453 73.528 55.4136 72.9946ZM108.712 33.932H90.3595V26.7189H134.889V33.932H116.741V106.444H108.737V33.932H108.712ZM218.953 66.3149C218.953 89.5035 199.811 107.841 176.666 107.841C154.287 107.841 134.482 89.8083 134.482 66.9498C134.482 43.7612 153.522 25.4236 176.666 25.4236C199.275 25.4236 218.953 43.4564 218.953 66.3149ZM210.95 66.3149C210.95 47.8503 195.044 33.0685 176.794 33.0685C172.304 33.0316 167.851 33.8806 163.692 35.5665C159.532 37.2523 155.749 39.7418 152.56 42.8913C149.371 46.0408 146.838 49.7881 145.109 53.9172C143.38 58.0464 142.488 62.4757 142.485 66.9498C142.485 85.389 158.594 100.171 176.768 100.171C195.605 100.171 210.95 85.1858 210.95 66.3149ZM240.798 26.6935H276.941V33.932H247.246L243.245 55.9524C247.336 53.5307 251.995 52.2255 256.754 52.168C271.895 52.168 283.467 65.1212 283.467 79.903C283.467 94.888 271.996 107.841 256.652 107.841C241.511 107.841 230.27 96.0817 229.174 81.4269H237.178C237.841 91.4338 245.615 100.171 256.219 100.171C267.357 100.171 275.463 90.9004 275.463 80.1062C275.463 69.4389 267.459 59.8383 256.346 59.8383C249.846 59.8383 243.882 63.3941 239.88 68.2451L233.508 65.9593L240.747 26.7189L240.798 26.6935ZM176.717 70.4548C178.349 70.4548 179.674 69.1341 179.674 67.5086V40.1546C179.674 39.7677 179.598 39.3846 179.449 39.0272C179.3 38.6697 179.083 38.3449 178.808 38.0713C178.534 37.7978 178.208 37.5807 177.849 37.4327C177.49 37.2846 177.106 37.2084 176.717 37.2084C176.329 37.2084 175.945 37.2846 175.586 37.4327C175.227 37.5807 174.901 37.7978 174.627 38.0713C174.352 38.3449 174.134 38.6697 173.986 39.0272C173.837 39.3846 173.761 39.7677 173.761 40.1546V67.5086C173.761 69.1341 175.086 70.4548 176.717 70.4548ZM176.717 70.4548C177.502 70.4548 178.254 70.1444 178.808 69.5919C179.363 69.0394 179.674 68.29 179.674 67.5086C179.674 66.7272 179.363 65.9778 178.808 65.4253C178.254 64.8728 177.502 64.5624 176.717 64.5624H157.779C156.995 64.5624 156.243 64.8728 155.688 65.4253C155.134 65.9778 154.822 66.7272 154.822 67.5086C154.822 68.29 155.134 69.0394 155.688 69.5919C156.243 70.1444 156.995 70.4548 157.779 70.4548H176.717Z" fill="var(--accent)"/>
<path d="M378.211 69.6422C376.681 91.5355 357.437 107.841 335.898 107.841C312.856 107.841 293.076 89.5037 293.076 66.188C293.076 55.6223 297.919 44.9297 305.388 37.5895C309.408 33.6437 314.176 30.5338 319.414 28.4409C324.652 26.3479 330.255 25.3137 335.898 25.3984C344.233 25.3984 352.466 27.6842 359.374 32.2051C364.574 35.6593 371.277 41.8057 373.342 47.952H364.242C358.635 38.5547 347.037 33.0686 335.898 33.0686C327.359 33.0686 318.693 35.9641 312.091 42.0089C305.515 48.0536 301.08 57.2478 301.08 66.2896C301.08 85.7193 317.189 100.171 336.23 100.171C350.504 100.171 364.574 90.7736 368.576 76.8807H323.893V69.6422H378.185H378.211ZM448.943 76.5505C448.943 93.3896 435.332 107.841 418.229 107.841C401.457 107.841 387.183 94.2531 387.183 77.3125C387.156 73.2306 387.939 69.1836 389.486 65.404C391.034 61.6245 393.316 58.1869 396.2 55.2887C399.085 52.3905 402.517 50.0888 406.297 48.5159C410.077 46.9431 414.132 46.13 418.229 46.1234C434.669 46.1234 448.943 60.1432 448.943 76.5505ZM395.161 77.3125C395.161 89.9354 405.561 100.171 418.229 100.171C431.432 100.171 440.94 89.3767 440.94 76.5505C441.026 73.4984 440.455 70.4633 439.263 67.6503C438.071 64.8373 436.288 62.3119 434.032 60.2448C429.776 56.1716 424.129 53.8573 418.229 53.7683C415.159 53.7879 412.123 54.4146 409.298 55.612C406.473 56.8094 403.915 58.5537 401.771 60.7438C399.628 62.9339 397.942 65.5262 396.812 68.3703C395.682 71.2145 395.129 74.254 395.186 77.3125H395.161ZM517.867 76.5505C517.867 93.3896 504.23 107.841 487.126 107.841C470.354 107.841 456.08 94.2531 456.08 77.3125C456.054 73.2306 456.836 69.1836 458.384 65.404C459.931 61.6245 462.213 58.1869 465.098 55.2887C467.983 52.3905 471.414 50.0888 475.195 48.5159C478.975 46.9431 483.03 46.13 487.126 46.1234C503.567 46.1234 517.867 60.1432 517.867 76.5505ZM464.084 77.3125C464.084 89.9354 474.484 100.171 487.126 100.171C500.33 100.171 509.863 89.3767 509.863 76.5505C509.946 73.4965 509.371 70.4602 508.174 67.647C506.978 64.8339 505.19 62.3096 502.93 60.2448C498.675 56.1694 493.027 53.8547 487.126 53.7683C484.056 53.7879 481.021 54.4146 478.196 55.612C475.371 56.8094 472.812 58.5537 470.669 60.7438C468.526 62.9339 466.84 65.5262 465.71 68.3703C464.579 71.2145 464.027 74.254 464.084 77.3125ZM588.396 98.0121C588.396 107.206 588.064 112.819 581.462 119.931C575.727 126.179 566.526 129.531 558.089 129.531C545.115 129.531 532.345 120.794 529.107 107.841H536.882C541.546 116.578 548.581 121.861 558.751 121.861C566.322 121.861 574.224 118.407 578.123 111.626C580.698 106.978 580.698 103.193 580.698 98.0121V94.7865C576.925 103.625 566.755 107.841 557.553 107.841C549.619 107.707 542.02 104.628 536.244 99.2058C533.227 96.3777 530.839 92.9492 529.236 89.1426C527.634 85.336 526.851 81.2363 526.941 77.1093C526.941 68.7787 530.407 61.2354 532.548 58.8479C540.348 49.0188 548.683 46.1234 557.12 46.1234C566.551 46.1234 576.161 50.3141 580.698 58.8479V47.4187H588.396V98.0121ZM534.944 76.3219C534.944 89.3767 544.121 100.196 557.655 100.196C563.951 100.196 569.457 98.1391 573.892 93.4912C578.053 88.9748 580.434 83.1111 580.596 76.9823C580.596 63.699 570.094 53.7683 556.891 53.7683C544.579 53.7683 534.97 64.2578 534.97 76.3219H534.944ZM602.007 26.6937H610.011V106.444H602.007V26.6683V26.6937ZM629.382 79.7761C629.816 91.0022 640.751 100.171 651.66 100.171C660.428 100.171 669.299 95.3453 672.867 87.2178H681.202C679.048 93.1433 675.148 98.2824 670.013 101.962C664.878 105.642 658.748 107.691 652.425 107.841C635.092 107.841 621.379 94.2531 621.379 76.9823C621.333 70.6321 623.271 64.425 626.924 59.2213C630.577 54.0176 635.764 50.0751 641.766 47.9401C647.769 45.8051 654.289 45.5834 660.423 47.3058C666.557 49.0281 672.002 52.6092 676.002 57.5526C681.534 64.3594 682.706 71.2677 682.935 79.7761H629.382ZM674.932 72.563C673.863 67.3388 671.042 62.6323 666.934 59.2167C662.825 55.8012 657.672 53.8798 652.323 53.7683C646.898 53.7375 641.633 55.6003 637.443 59.0335C633.252 62.4666 630.401 67.2534 629.382 72.563H674.932Z" fill="var(--accent)"/>
</svg>
