<svg width="712" height="91" viewBox="0 0 712 91" fill="none" xmlns="http://www.w3.org/2000/svg">
<g clip-path="url(#clip0_973_4328)">
<path d="M142.298 21.4267L135.914 21.2932V69.1865H142.264C143.852 69.2198 145.405 68.6191 146.486 67.4843C147.601 66.3829 148.242 64.8477 148.209 63.2791V27.3675C148.242 25.7989 147.601 24.2636 146.486 23.1289C145.405 22.0275 143.885 21.3934 142.298 21.4267ZM304.895 21.3934L298.512 21.2599V69.1531H304.861C306.449 69.1865 308.003 68.5857 309.083 67.451C310.198 66.3496 310.84 64.8143 310.806 63.2457V27.3007C310.84 25.7321 310.198 24.1969 309.083 23.0621C307.969 21.9607 306.483 21.36 304.895 21.3934ZM234.135 20.1585C232.547 20.1251 230.994 20.7592 229.845 21.8606V21.894C228.697 22.9954 228.089 24.4972 228.123 26.0992V63.7463C228.089 65.3149 228.697 66.8502 229.845 67.9516C230.96 69.0863 232.513 69.6871 234.135 69.6537H234.168C237.479 69.6537 240.147 66.9837 240.113 63.7463V26.0659C240.113 22.7951 237.445 20.1585 234.135 20.1585ZM40.4297 53.5669H48.1982L44.3139 26.4664L40.4297 53.5669Z" fill="var(--accent)"/>
<path d="M336.746 0H9.69369C4.32332 0 0 4.27201 0 9.57864V80.5007C0 85.7739 4.32332 90.0793 9.69369 90.0793H336.746C342.116 90.0793 346.44 85.8073 346.44 80.5007V9.57864C346.44 4.27201 342.083 0 336.746 0ZM52.2176 79.3993L49.752 63.6129H38.8085L36.2754 79.3993H25.332L37.1535 10.7134H51.5759L63.2285 79.3993H52.2176ZM112.17 79.4327H100.99L86.5677 35.3776V79.4327H76.0634V10.68H87.8174L101.666 56.8711V10.6466H112.17V79.4327ZM158.409 62.9787C158.477 67.3509 156.72 71.5561 153.579 74.5933C150.539 77.7305 146.317 79.466 141.926 79.4327H125.444V10.6466H141.926C146.317 10.5799 150.573 12.3154 153.613 15.486C156.754 18.5232 158.477 22.7284 158.409 27.0672V62.9787ZM195.292 79.4327L188.943 53.567H182.019V79.3993H171.514L171.48 10.7134H188.031C193.874 10.7134 198.163 12.3154 200.899 15.486C203.466 18.7902 204.75 22.9287 204.513 27.1006V37.0797C204.581 41.819 202.521 46.3246 198.906 49.3951L206.607 79.3993H195.292V79.4327ZM251.09 63.8131V63.8465C251.09 72.9245 243.626 80.267 234.439 80.267C230.014 80.3338 225.725 78.5983 222.685 75.4277C219.544 72.3571 217.787 68.1519 217.855 63.8131V26.2996C217.787 21.9274 219.544 17.6888 222.752 14.6517C229.237 8.24364 239.775 8.24364 246.26 14.6517C249.435 17.6888 251.192 21.894 251.124 26.2662V63.8131H251.09ZM274.767 79.3993H264.263V10.7134H274.767V79.3993ZM320.973 62.9787C321.04 67.3509 319.284 71.5561 316.143 74.5933C313.103 77.7305 308.881 79.466 304.49 79.4327H288.007V10.6466H304.49C308.881 10.5799 313.137 12.3154 316.177 15.486C319.318 18.5232 321.04 22.7284 320.973 27.0672V62.9787Z" fill="var(--accent)"/>
<path d="M188.335 21.3266L182.019 21.2932V43.2874H188.368C189.956 43.3207 191.51 42.6866 192.624 41.5852C193.773 40.4839 194.381 38.9486 194.347 37.3466V27.2673C194.313 23.2957 192.32 21.3266 188.335 21.3266ZM634.109 20.5256H645.255V78.7651H655.726V20.5256H666.838V10.0792L634.109 10.1459V20.5256ZM699.5 10.1459L691.799 34.8101L684.064 10.0458H672.513L686.563 49.9958V78.7651H697.068V49.9958L711.152 10.0124L699.5 10.1459ZM434.561 63.1789C434.561 66.4497 431.893 69.0863 428.617 69.0863H428.583C426.995 69.1197 425.442 68.4855 424.293 67.3842C423.145 66.2828 422.537 64.7809 422.571 63.1789V10.0792H412.303V63.279C412.269 72.2569 419.632 79.5994 428.718 79.5994H428.887C433.312 79.6662 437.533 77.9641 440.641 74.8936C443.85 71.8564 445.606 67.6512 445.538 63.279V10.0792L434.561 10.1459V63.1789ZM616.782 10.0792H627.287V78.8318H616.782V10.0792ZM515.049 39.3491H502.383V10.0792H491.913V78.7651H502.383V49.5953H515.049V78.6649H525.52V10.0792L515.049 10.1459V39.3491ZM452.294 20.5256H463.44V78.7651H473.944V20.5256H485.022V10.0792L452.294 10.1459V20.5256ZM380.52 10.0792L368.664 78.8318H379.608L382.141 63.0454H393.051L395.516 78.8318H406.527L394.874 10.1459L380.52 10.0792ZM383.796 52.8994L387.714 25.8322L391.564 52.8994H383.796ZM561.626 14.0174C555.141 7.60942 544.603 7.60942 538.118 14.0174H538.152C534.977 17.0546 533.187 21.2932 533.255 25.6653V63.1789C533.255 72.2569 540.685 79.5994 549.872 79.5994C559.059 79.5994 566.49 72.2569 566.49 63.1789V25.632C566.558 21.2598 564.801 17.0546 561.626 14.0174ZM555.648 63.0454V63.1789C555.58 66.4497 552.845 69.0195 549.534 68.9528C547.947 68.9862 546.393 68.352 545.245 67.2507L545.38 67.2173C544.232 66.1159 543.624 64.614 543.657 63.012V25.3983C543.624 23.8297 544.232 22.2945 545.38 21.1931C546.495 20.0583 548.048 19.4576 549.67 19.4909H549.703C553.013 19.4909 555.682 22.161 555.648 25.3983V63.0454ZM607.19 36.5122V26.5331C607.46 22.3612 606.177 18.2227 603.576 14.9186C600.84 11.7479 596.551 10.1459 590.707 10.1459L574.191 10.0792V78.7651H584.695V52.8994H591.619L597.969 78.7651H609.318L601.617 48.8276C605.197 45.7571 607.258 41.2515 607.19 36.5122ZM596.956 36.7125C596.99 38.2811 596.348 39.8164 595.233 40.9511C594.119 42.0859 592.599 42.6866 590.978 42.6532H584.661V20.6924H590.978C594.963 20.6924 596.956 22.695 596.956 26.6666V36.7125Z" fill="var(--accent)"/>
</g>
<defs>
<clipPath id="clip0_973_4328">
<rect width="711.152" height="90.0793" fill="var(--accent)"/>
</clipPath>
</defs>
</svg>
