<svg width="713" height="154" viewBox="0 0 713 154" fill="none" xmlns="http://www.w3.org/2000/svg">
<path d="M67.8228 3.47618C48.1079 5.83065 30.2279 16.2845 18.4883 32.2949C11.1481 42.3249 6.56045 54.0737 5.12536 66.5522C4.65483 70.5549 4.65483 78.7958 5.12536 82.798C7.05454 99.5384 14.4182 114.466 26.5578 126.238C30.1103 129.676 32.4865 131.583 36.8388 134.502C45.6377 140.365 55.0011 143.92 66.4115 145.709C70.3165 146.321 82.2681 146.321 86.1737 145.709C94.7608 144.368 101.042 142.413 108.053 138.929C130.003 128.004 144.66 107.12 147.46 82.798C147.93 78.7958 147.93 70.5549 147.46 66.5522C145.178 46.61 134.755 28.669 118.64 16.826C108.618 9.48006 96.8778 4.88886 84.4089 3.45263C80.5975 3.00529 71.5872 3.02883 67.8228 3.47618ZM100.76 33.1425C102.618 34.0136 104.312 35.6853 105.136 37.4276C106.076 39.4053 106.194 41.9246 106.124 57.9585L106.053 72.4383L102.407 72.5795V60.6191C102.407 53.9089 102.289 47.952 102.171 47.0338C101.866 44.9384 101.159 43.6669 99.9365 43.0312C98.9954 42.5368 98.8071 42.5368 74.293 42.4662C52.4368 42.4191 49.4725 42.4426 48.6255 42.7722C47.4728 43.196 46.814 43.8553 46.2493 45.1267C45.8494 46.0214 45.8259 47.8343 45.7082 76.0882C45.5906 104.176 45.5671 106.178 45.1671 107.167C44.5319 108.768 43.732 110.016 42.6733 111.052L41.7088 111.97V77.0299C41.7088 54.0501 41.8029 41.5479 41.9676 40.5355C42.5792 36.6035 45.1201 33.5427 48.5079 32.6245C49.3548 32.3891 55.2364 32.342 74.4104 32.3655L99.2308 32.4126L100.76 33.1425ZM110.076 77.6181C110.782 78.0657 111.488 78.772 111.935 79.4782L112.641 80.6321V108.509L111.935 109.663C111.488 110.369 110.782 111.075 110.076 111.523L108.924 112.229H64.8351L63.6824 111.523C62.9767 111.075 62.2705 110.369 61.8235 109.663L61.1178 108.509L61.0475 94.8294L61.0004 81.1739L61.6119 79.9258C62.2705 78.5836 63.3057 77.642 64.6938 77.124C65.4233 76.8648 69.5876 76.8177 87.256 76.8648L108.924 76.9119L110.076 77.6181Z" fill="var(--accent)"/>
<path d="M69.463 36.3239C67.7692 36.6064 65.44 37.6659 65.9341 37.9249C67.0164 38.5135 78.9442 38.9138 81.9319 38.4664L82.9904 38.3016L82.2847 37.8072C81.4611 37.2186 79.7672 36.6535 77.838 36.3239C76.168 36.0178 71.2981 36.0413 69.463 36.3239Z" fill="white"/>
<path d="M80.276 88.9235C80.0876 88.9706 79.5232 89.0647 79.0291 89.1589C77.8294 89.3472 77.312 90.0064 77.147 91.4666C76.9586 92.9965 77.312 94.3626 77.9706 94.7154C78.2531 94.8805 79.5941 95.1392 80.9351 95.3043C83.57 95.61 83.8049 95.7518 83.8049 96.9522C83.8049 98.2705 83.452 98.4827 81.217 98.4124L79.2407 98.3415L79.0059 97.5643C78.8175 96.8819 78.7001 96.8109 77.8997 96.8109C76.865 96.8109 76.818 96.9993 77.2411 98.5066C77.3824 99.0948 77.6881 99.5186 78.1119 99.7307C79.7586 100.578 84.2519 100.343 85.1459 99.3541C85.4516 99.0245 85.5929 98.4124 85.6399 97.1405C85.7812 94.3858 85.311 93.9859 81.4525 93.6325C80.4881 93.5383 79.547 93.35 79.4058 93.2326C79.0291 92.9262 79.0059 91.3486 79.382 90.9719C79.547 90.8074 80.3701 90.6894 81.4054 90.6894C83.0992 90.6894 83.123 90.6894 83.3579 91.3957C83.5933 92.0078 83.7345 92.1019 84.5344 92.1019C85.4284 92.1019 85.4516 92.0787 85.4516 91.3015C85.4516 90.0302 84.6756 89.3001 82.9818 89.0415C81.5937 88.8061 80.9584 88.7822 80.276 88.9235Z" fill="white"/>
<path d="M87.8427 89.6548C87.3719 90.2437 87.3486 90.5733 87.3486 94.9759C87.3486 99.6378 87.3486 99.6617 87.9363 100.227C88.4775 100.792 88.5955 100.815 92.0535 100.815C95.465 100.815 95.6295 100.792 96.1706 100.25C96.806 99.6146 97.0646 98.037 96.9472 95.6351L96.8763 94.1051L92.9945 93.9639V96.3419H95.1121V98.6961H88.9954V91.1621H92.0535C94.9476 91.1621 95.1121 91.1853 95.1121 91.6329C95.1121 92.0329 95.2766 92.1038 96.0765 92.1038H97.0414L96.9001 91.2092C96.806 90.7377 96.5473 90.0786 96.3119 89.749C95.8887 89.1607 95.8416 89.1607 92.1005 89.0898L88.3362 89.0427L87.8427 89.6548Z" fill="var(--accent)"/>
<path d="M191.787 4.86304C204.594 4.86304 217.4 4.86304 230.595 4.86304C230.595 5.04135 230.595 5.21967 230.595 5.40339C231.484 5.40339 232.374 5.40339 233.29 5.40339C233.29 5.5817 233.29 5.76002 233.29 5.94374C233.646 5.94374 234.002 5.94374 234.368 5.94374C234.368 6.12205 234.368 6.30037 234.368 6.48409C234.724 6.48409 235.08 6.48409 235.446 6.48409C235.446 6.66241 235.446 6.84072 235.446 7.02444C235.624 7.02444 235.802 7.02444 235.985 7.02444C235.985 7.20276 235.985 7.38107 235.985 7.56479C236.163 7.56479 236.341 7.56479 236.524 7.56479C236.524 7.74311 236.524 7.92142 236.524 8.10514C236.702 8.10514 236.88 8.10514 237.063 8.10514C237.063 8.28346 237.063 8.46177 237.063 8.64549C237.241 8.64549 237.419 8.64549 237.602 8.64549C237.602 8.82381 237.602 9.00212 237.602 9.18584C237.78 9.18584 237.958 9.18584 238.141 9.18584C238.141 9.54248 238.141 9.89911 238.141 10.2665C238.319 10.2665 238.497 10.2665 238.68 10.2665C238.68 10.6232 238.68 10.9798 238.68 11.3472C238.858 11.3472 239.036 11.3472 239.219 11.3472C239.219 13.3087 239.219 15.2702 239.219 17.2911C237.085 17.2911 234.95 17.2911 232.751 17.2911C232.751 16.2212 232.751 15.1513 232.751 14.049C232.573 14.049 232.395 14.049 232.212 14.049C232.212 13.6924 232.212 13.3357 232.212 12.9683C232.034 12.9683 231.856 12.9683 231.673 12.9683C231.673 12.79 231.673 12.6117 231.673 12.4279C231.317 12.4279 230.962 12.4279 230.595 12.4279C230.595 12.2496 230.595 12.0713 230.595 11.8876C217.788 11.8876 204.982 11.8876 191.787 11.8876C191.787 12.0659 191.787 12.2442 191.787 12.4279C191.609 12.4279 191.431 12.4279 191.248 12.4279C191.248 12.6063 191.248 12.7846 191.248 12.9683C191.07 12.9683 190.892 12.9683 190.709 12.9683C190.709 13.1466 190.709 13.3249 190.709 13.5087C190.531 13.5087 190.353 13.5087 190.17 13.5087C190.17 18.5015 190.17 23.4943 190.17 28.6385C190.348 28.6385 190.526 28.6385 190.709 28.6385C190.709 28.8168 190.709 28.9951 190.709 29.1788C190.887 29.1788 191.065 29.1788 191.248 29.1788C191.248 29.3571 191.248 29.5355 191.248 29.7192C204.588 29.7192 217.929 29.7192 231.673 29.7192C231.673 29.8975 231.673 30.0758 231.673 30.2595C232.385 30.2595 233.096 30.2595 233.829 30.2595C233.829 30.4378 233.829 30.6162 233.829 30.7999C234.185 30.7999 234.541 30.7999 234.907 30.7999C234.907 30.9782 234.907 31.1565 234.907 31.3402C235.085 31.3402 235.263 31.3402 235.446 31.3402C235.446 31.5185 235.446 31.6969 235.446 31.8806C235.624 31.8806 235.802 31.8806 235.985 31.8806C235.985 32.0589 235.985 32.2372 235.985 32.4209C236.163 32.4209 236.341 32.4209 236.524 32.4209C236.524 32.5992 236.524 32.7776 236.524 32.9613C236.702 32.9613 236.88 32.9613 237.063 32.9613C237.063 33.1396 237.063 33.3179 237.063 33.5016C237.241 33.5016 237.419 33.5016 237.602 33.5016C237.602 33.6799 237.602 33.8583 237.602 34.042C237.78 34.042 237.958 34.042 238.141 34.042C238.141 34.3986 238.141 34.7552 238.141 35.1227C238.319 35.1227 238.497 35.1227 238.68 35.1227C238.68 35.4793 238.68 35.8359 238.68 36.2034C238.858 36.2034 239.036 36.2034 239.219 36.2034C239.219 42.4444 239.219 48.6855 239.219 55.1157C239.041 55.1157 238.863 55.1157 238.68 55.1157C238.68 55.4723 238.68 55.8289 238.68 56.1964C238.502 56.1964 238.324 56.1964 238.141 56.1964C238.141 56.553 238.141 56.9096 238.141 57.2771C237.963 57.2771 237.785 57.2771 237.602 57.2771C237.602 57.4554 237.602 57.6337 237.602 57.8174C237.424 57.8174 237.246 57.8174 237.063 57.8174C237.063 57.9957 237.063 58.1741 237.063 58.3578C236.885 58.3578 236.707 58.3578 236.524 58.3578C236.524 58.5361 236.524 58.7144 236.524 58.8981C236.346 58.8981 236.168 58.8981 235.985 58.8981C235.985 59.0764 235.985 59.2548 235.985 59.4385C235.807 59.4385 235.629 59.4385 235.446 59.4385C235.446 59.6168 235.446 59.7951 235.446 59.9788C235.268 59.9788 235.09 59.9788 234.907 59.9788C234.907 60.1571 234.907 60.3355 234.907 60.5192C234.551 60.5192 234.196 60.5192 233.829 60.5192C233.829 60.6975 233.829 60.8758 233.829 61.0595C233.118 61.0595 232.406 61.0595 231.673 61.0595C231.673 61.2378 231.673 61.4162 231.673 61.5999C218.155 61.5999 204.637 61.5999 190.709 61.5999C190.709 61.4216 190.709 61.2432 190.709 61.0595C190.175 61.0595 189.642 61.0595 189.092 61.0595C189.092 60.8812 189.092 60.7029 189.092 60.5192C188.736 60.5192 188.381 60.5192 188.014 60.5192C188.014 60.3409 188.014 60.1625 188.014 59.9788C187.658 59.9788 187.303 59.9788 186.936 59.9788C186.936 59.8005 186.936 59.6222 186.936 59.4385C186.758 59.4385 186.58 59.4385 186.397 59.4385C186.397 59.2602 186.397 59.0818 186.397 58.8981C186.219 58.8981 186.041 58.8981 185.858 58.8981C185.858 58.7198 185.858 58.5415 185.858 58.3578C185.68 58.3578 185.502 58.3578 185.319 58.3578C185.319 58.1795 185.319 58.0011 185.319 57.8174C185.141 57.8174 184.963 57.8174 184.78 57.8174C184.78 57.4608 184.78 57.1042 184.78 56.7367C184.602 56.7367 184.424 56.7367 184.241 56.7367C184.241 56.5584 184.241 56.3801 184.241 56.1964C184.063 56.1964 183.885 56.1964 183.702 56.1964C183.702 55.6614 183.702 55.1265 183.702 54.5753C183.524 54.5753 183.346 54.5753 183.163 54.5753C183.163 52.7922 183.163 51.009 183.163 49.1718C185.475 49.1718 187.788 49.1718 190.17 49.1718C190.17 50.42 190.17 51.6682 190.17 52.9543C190.348 52.9543 190.526 52.9543 190.709 52.9543C190.709 53.3109 190.709 53.6675 190.709 54.035C191.065 54.035 191.421 54.035 191.787 54.035C191.787 54.2133 191.787 54.3916 191.787 54.5753C204.772 54.5753 217.756 54.5753 231.134 54.5753C231.134 54.397 231.134 54.2187 231.134 54.035C231.312 54.035 231.49 54.035 231.673 54.035C231.673 53.8566 231.673 53.6783 231.673 53.4946C231.851 53.4946 232.029 53.4946 232.212 53.4946C232.212 53.138 232.212 52.7814 232.212 52.4139C232.39 52.4139 232.568 52.4139 232.751 52.4139C232.751 47.956 232.751 43.4981 232.751 38.9051C232.573 38.9051 232.395 38.9051 232.212 38.9051C232.212 38.5485 232.212 38.1919 232.212 37.8244C232.034 37.8244 231.856 37.8244 231.673 37.8244C231.673 37.6461 231.673 37.4678 231.673 37.2841C231.495 37.2841 231.317 37.2841 231.134 37.2841C231.134 37.1058 231.134 36.9275 231.134 36.7437C217.616 36.7437 204.098 36.7437 190.17 36.7437C190.17 36.5654 190.17 36.3871 190.17 36.2034C189.636 36.2034 189.103 36.2034 188.553 36.2034C188.553 36.0251 188.553 35.8468 188.553 35.663C188.197 35.663 187.842 35.663 187.475 35.663C187.475 35.4847 187.475 35.3064 187.475 35.1227C187.297 35.1227 187.119 35.1227 186.936 35.1227C186.936 34.9444 186.936 34.7661 186.936 34.5823C186.758 34.5823 186.58 34.5823 186.397 34.5823C186.397 34.404 186.397 34.2257 186.397 34.042C186.219 34.042 186.041 34.042 185.858 34.042C185.858 33.8637 185.858 33.6854 185.858 33.5016C185.68 33.5016 185.502 33.5016 185.319 33.5016C185.319 33.3233 185.319 33.145 185.319 32.9613C185.141 32.9613 184.963 32.9613 184.78 32.9613C184.78 32.783 184.78 32.6046 184.78 32.4209C184.602 32.4209 184.424 32.4209 184.241 32.4209C184.241 32.0643 184.241 31.7077 184.241 31.3402C184.063 31.3402 183.885 31.3402 183.702 31.3402C183.702 30.8053 183.702 30.2703 183.702 29.7192C183.524 29.7192 183.346 29.7192 183.163 29.7192C183.163 24.0131 183.163 18.307 183.163 12.4279C183.341 12.4279 183.519 12.4279 183.702 12.4279C183.702 11.893 183.702 11.3581 183.702 10.8069C183.88 10.8069 184.058 10.8069 184.241 10.8069C184.241 10.4503 184.241 10.0936 184.241 9.72619C184.419 9.72619 184.597 9.72619 184.78 9.72619C184.78 9.36956 184.78 9.01293 184.78 8.64549C184.958 8.64549 185.136 8.64549 185.319 8.64549C185.319 8.46718 185.319 8.28886 185.319 8.10514C185.497 8.10514 185.675 8.10514 185.858 8.10514C185.858 7.92683 185.858 7.74851 185.858 7.56479C186.036 7.56479 186.214 7.56479 186.397 7.56479C186.397 7.38648 186.397 7.20816 186.397 7.02444C186.575 7.02444 186.753 7.02444 186.936 7.02444C186.936 6.84612 186.936 6.66781 186.936 6.48409C187.292 6.48409 187.648 6.48409 188.014 6.48409C188.014 6.30577 188.014 6.12746 188.014 5.94374C188.37 5.94374 188.726 5.94374 189.092 5.94374C189.092 5.76542 189.092 5.58711 189.092 5.40339C189.981 5.40339 190.871 5.40339 191.787 5.40339C191.787 5.22507 191.787 5.04676 191.787 4.86304Z" fill="var(--accent)"/>
<path d="M509.797 4.86304C522.603 4.86304 535.41 4.86304 548.605 4.86304C548.605 5.04135 548.605 5.21967 548.605 5.40339C549.494 5.40339 550.384 5.40339 551.3 5.40339C551.3 5.5817 551.3 5.76002 551.3 5.94374C551.833 5.94374 552.367 5.94374 552.917 5.94374C552.917 6.12205 552.917 6.30037 552.917 6.48409C553.095 6.48409 553.273 6.48409 553.456 6.48409C553.456 6.66241 553.456 6.84072 553.456 7.02444C553.634 7.02444 553.812 7.02444 553.995 7.02444C553.995 7.20276 553.995 7.38107 553.995 7.56479C554.351 7.56479 554.706 7.56479 555.073 7.56479C555.073 7.92142 555.073 8.27805 555.073 8.64549C555.251 8.64549 555.429 8.64549 555.612 8.64549C555.612 8.82381 555.612 9.00212 555.612 9.18584C555.79 9.18584 555.968 9.18584 556.151 9.18584C556.151 9.36416 556.151 9.54248 556.151 9.72619C556.329 9.72619 556.507 9.72619 556.69 9.72619C556.69 10.2611 556.69 10.7961 556.69 11.3472C556.868 11.3472 557.046 11.3472 557.229 11.3472C557.229 12.0605 557.229 12.7738 557.229 13.5087C557.407 13.5087 557.585 13.5087 557.768 13.5087C557.768 14.7569 557.768 16.0051 557.768 17.2911C555.456 17.2911 553.143 17.2911 550.761 17.2911C550.761 16.2212 550.761 15.1513 550.761 14.049C550.583 14.049 550.405 14.049 550.222 14.049C550.222 13.6924 550.222 13.3357 550.222 12.9683C550.044 12.9683 549.866 12.9683 549.683 12.9683C549.683 12.79 549.683 12.6117 549.683 12.4279C549.327 12.4279 548.971 12.4279 548.605 12.4279C548.605 12.2496 548.605 12.0713 548.605 11.8876C535.798 11.8876 522.992 11.8876 509.797 11.8876C509.797 12.0659 509.797 12.2442 509.797 12.4279C509.619 12.4279 509.441 12.4279 509.258 12.4279C509.258 12.6063 509.258 12.7846 509.258 12.9683C509.08 12.9683 508.902 12.9683 508.719 12.9683C508.719 13.1466 508.719 13.3249 508.719 13.5087C508.541 13.5087 508.363 13.5087 508.18 13.5087C508.18 26.5257 508.18 39.5428 508.18 52.9543C508.358 52.9543 508.536 52.9543 508.719 52.9543C508.719 53.1326 508.719 53.3109 508.719 53.4946C508.897 53.4946 509.075 53.4946 509.258 53.4946C509.258 53.6729 509.258 53.8512 509.258 54.035C509.436 54.035 509.614 54.035 509.797 54.035C509.797 54.2133 509.797 54.3916 509.797 54.5753C522.781 54.5753 535.766 54.5753 549.144 54.5753C549.144 54.397 549.144 54.2187 549.144 54.035C549.322 54.035 549.5 54.035 549.683 54.035C549.683 53.8566 549.683 53.6783 549.683 53.4946C549.861 53.4946 550.039 53.4946 550.222 53.4946C550.222 53.3163 550.222 53.138 550.222 52.9543C550.4 52.9543 550.578 52.9543 550.761 52.9543C550.761 48.1397 550.761 43.3252 550.761 38.3648C546.136 38.3648 541.512 38.3648 536.747 38.3648C536.747 36.0467 536.747 33.7286 536.747 31.3402C543.684 31.3402 550.621 31.3402 557.768 31.3402C557.768 38.4729 557.768 45.6055 557.768 52.9543C557.59 52.9543 557.412 52.9543 557.229 52.9543C557.229 53.8458 557.229 54.7374 557.229 55.656C557.051 55.656 556.873 55.656 556.69 55.656C556.69 56.0126 556.69 56.3693 556.69 56.7367C556.512 56.7367 556.334 56.7367 556.151 56.7367C556.151 56.915 556.151 57.0934 556.151 57.2771C555.973 57.2771 555.795 57.2771 555.612 57.2771C555.612 57.6337 555.612 57.9903 555.612 58.3578C555.434 58.3578 555.256 58.3578 555.073 58.3578C555.073 58.5361 555.073 58.7144 555.073 58.8981C554.895 58.8981 554.717 58.8981 554.534 58.8981C554.534 59.0764 554.534 59.2548 554.534 59.4385C554.178 59.4385 553.822 59.4385 553.456 59.4385C553.456 59.6168 553.456 59.7951 553.456 59.9788C553.278 59.9788 553.1 59.9788 552.917 59.9788C552.917 60.1571 552.917 60.3355 552.917 60.5192C552.561 60.5192 552.205 60.5192 551.839 60.5192C551.839 60.6975 551.839 60.8758 551.839 61.0595C551.127 61.0595 550.416 61.0595 549.683 61.0595C549.683 61.2378 549.683 61.4162 549.683 61.5999C536.343 61.5999 523.002 61.5999 509.258 61.5999C509.258 61.4216 509.258 61.2432 509.258 61.0595C508.546 61.0595 507.835 61.0595 507.102 61.0595C507.102 60.8812 507.102 60.7029 507.102 60.5192C506.746 60.5192 506.39 60.5192 506.024 60.5192C506.024 60.3409 506.024 60.1625 506.024 59.9788C505.668 59.9788 505.312 59.9788 504.946 59.9788C504.946 59.8005 504.946 59.6222 504.946 59.4385C504.768 59.4385 504.59 59.4385 504.407 59.4385C504.407 59.2602 504.407 59.0818 504.407 58.8981C504.229 58.8981 504.051 58.8981 503.868 58.8981C503.868 58.7198 503.868 58.5415 503.868 58.3578C503.69 58.3578 503.512 58.3578 503.329 58.3578C503.329 58.1795 503.329 58.0011 503.329 57.8174C503.151 57.8174 502.973 57.8174 502.79 57.8174C502.79 57.4608 502.79 57.1042 502.79 56.7367C502.612 56.7367 502.434 56.7367 502.251 56.7367C502.251 56.3801 502.251 56.0235 502.251 55.656C502.073 55.656 501.895 55.656 501.712 55.656C501.712 54.9428 501.712 54.2295 501.712 53.4946C501.534 53.4946 501.356 53.4946 501.173 53.4946C501.173 40.1209 501.173 26.7472 501.173 12.9683C501.351 12.9683 501.529 12.9683 501.712 12.9683C501.712 12.255 501.712 11.5418 501.712 10.8069C501.89 10.8069 502.068 10.8069 502.251 10.8069C502.251 10.4503 502.251 10.0936 502.251 9.72619C502.429 9.72619 502.607 9.72619 502.79 9.72619C502.79 9.54788 502.79 9.36956 502.79 9.18584C502.968 9.18584 503.146 9.18584 503.329 9.18584C503.329 8.82921 503.329 8.47258 503.329 8.10514C503.507 8.10514 503.685 8.10514 503.868 8.10514C503.868 7.92683 503.868 7.74851 503.868 7.56479C504.046 7.56479 504.224 7.56479 504.407 7.56479C504.407 7.38648 504.407 7.20816 504.407 7.02444C504.763 7.02444 505.118 7.02444 505.485 7.02444C505.485 6.84612 505.485 6.66781 505.485 6.48409C505.663 6.48409 505.841 6.48409 506.024 6.48409C506.024 6.30577 506.024 6.12746 506.024 5.94374C506.38 5.94374 506.735 5.94374 507.102 5.94374C507.102 5.76542 507.102 5.58711 507.102 5.40339C507.991 5.40339 508.881 5.40339 509.797 5.40339C509.797 5.22507 509.797 5.04676 509.797 4.86304Z" fill="var(--accent)"/>
<path d="M373.43 16.2104C394.241 16.2104 415.052 16.2104 436.493 16.2104C436.493 16.3888 436.493 16.5671 436.493 16.7508C436.849 16.7508 437.205 16.7508 437.571 16.7508C437.571 16.9291 437.571 17.1074 437.571 17.2912C437.927 17.2912 438.283 17.2912 438.649 17.2912C438.649 17.4695 438.649 17.6478 438.649 17.8315C438.827 17.8315 439.005 17.8315 439.188 17.8315C439.188 18.0098 439.188 18.1881 439.188 18.3719C439.366 18.3719 439.544 18.3719 439.727 18.3719C439.727 18.5502 439.727 18.7285 439.727 18.9122C439.905 18.9122 440.083 18.9122 440.266 18.9122C440.266 19.0905 440.266 19.2688 440.266 19.4526C440.444 19.4526 440.622 19.4526 440.805 19.4526C440.805 19.6309 440.805 19.8092 440.805 19.9929C440.983 19.9929 441.161 19.9929 441.344 19.9929C441.344 20.3495 441.344 20.7062 441.344 21.0736C441.522 21.0736 441.7 21.0736 441.883 21.0736C441.883 21.6086 441.883 22.1435 441.883 22.6947C442.061 22.6947 442.239 22.6947 442.422 22.6947C442.422 35.5334 442.422 48.3721 442.422 61.5999C440.288 61.5999 438.153 61.5999 435.954 61.5999C435.954 49.6528 435.954 37.7056 435.954 25.3964C435.776 25.3964 435.598 25.3964 435.415 25.3964C435.415 25.0398 435.415 24.6832 435.415 24.3157C435.237 24.3157 435.059 24.3157 434.876 24.3157C434.876 24.1374 434.876 23.9591 434.876 23.7754C434.698 23.7754 434.52 23.7754 434.337 23.7754C434.337 23.597 434.337 23.4187 434.337 23.235C433.981 23.235 433.626 23.235 433.259 23.235C433.259 23.0567 433.259 22.8784 433.259 22.6947C426.856 22.6947 420.453 22.6947 413.855 22.6947C413.855 22.873 413.855 23.0513 413.855 23.235C413.499 23.235 413.144 23.235 412.777 23.235C412.777 23.4133 412.777 23.5916 412.777 23.7754C412.599 23.7754 412.421 23.7754 412.238 23.7754C412.238 23.9537 412.238 24.132 412.238 24.3157C412.06 24.3157 411.882 24.3157 411.699 24.3157C411.699 36.6195 411.699 48.9233 411.699 61.5999C409.387 61.5999 407.075 61.5999 404.692 61.5999C404.692 49.4744 404.692 37.349 404.692 24.8561C404.514 24.8561 404.336 24.8561 404.153 24.8561C404.153 24.4994 404.153 24.1428 404.153 23.7754C403.975 23.7754 403.797 23.7754 403.614 23.7754C403.614 23.597 403.614 23.4187 403.614 23.235C403.258 23.235 402.903 23.235 402.536 23.235C402.536 23.0567 402.536 22.8784 402.536 22.6947C395.955 22.6947 389.374 22.6947 382.593 22.6947C382.593 22.873 382.593 23.0513 382.593 23.235C382.237 23.235 381.882 23.235 381.515 23.235C381.515 23.4133 381.515 23.5916 381.515 23.7754C381.337 23.7754 381.159 23.7754 380.976 23.7754C380.976 23.9537 380.976 24.132 380.976 24.3157C380.798 24.3157 380.62 24.3157 380.437 24.3157C380.437 36.6195 380.437 48.9233 380.437 61.5999C378.125 61.5999 375.813 61.5999 373.43 61.5999C373.43 46.6214 373.43 31.6429 373.43 16.2104Z" fill="var(--accent)"/>
<path d="M299.587 16.2104C320.22 16.2104 340.853 16.2104 362.111 16.2104C362.111 16.3888 362.111 16.5671 362.111 16.7508C362.645 16.7508 363.178 16.7508 363.728 16.7508C363.728 16.9291 363.728 17.1074 363.728 17.2912C363.906 17.2912 364.084 17.2912 364.267 17.2912C364.267 17.4695 364.267 17.6478 364.267 17.8315C364.623 17.8315 364.978 17.8315 365.345 17.8315C365.345 18.0098 365.345 18.1881 365.345 18.3719C365.523 18.3719 365.701 18.3719 365.884 18.3719C365.884 18.5502 365.884 18.7285 365.884 18.9122C366.062 18.9122 366.24 18.9122 366.423 18.9122C366.423 19.2688 366.423 19.6255 366.423 19.9929C366.601 19.9929 366.779 19.9929 366.962 19.9929C366.962 20.1712 366.962 20.3495 366.962 20.5333C367.14 20.5333 367.318 20.5333 367.501 20.5333C367.501 20.8899 367.501 21.2465 367.501 21.614C367.679 21.614 367.857 21.614 368.04 21.614C368.04 22.3272 368.04 23.0405 368.04 23.7754C368.218 23.7754 368.396 23.7754 368.579 23.7754C368.579 36.2575 368.579 48.7396 368.579 61.5999C366.267 61.5999 363.954 61.5999 361.572 61.5999C361.572 49.2961 361.572 36.9923 361.572 24.3157C361.394 24.3157 361.216 24.3157 361.033 24.3157C361.033 24.1374 361.033 23.9591 361.033 23.7754C360.855 23.7754 360.677 23.7754 360.494 23.7754C360.494 23.597 360.494 23.4187 360.494 23.235C360.138 23.235 359.782 23.235 359.416 23.235C359.416 23.0567 359.416 22.8784 359.416 22.6947C352.835 22.6947 346.254 22.6947 339.473 22.6947C339.473 22.873 339.473 23.0513 339.473 23.235C339.117 23.235 338.761 23.235 338.395 23.235C338.395 23.4133 338.395 23.5916 338.395 23.7754C338.217 23.7754 338.039 23.7754 337.856 23.7754C337.856 24.132 337.856 24.4886 337.856 24.8561C337.678 24.8561 337.5 24.8561 337.317 24.8561C337.317 36.9815 337.317 49.107 337.317 61.5999C335.005 61.5999 332.692 61.5999 330.31 61.5999C330.31 49.2961 330.31 36.9923 330.31 24.3157C330.132 24.3157 329.954 24.3157 329.771 24.3157C329.771 24.1374 329.771 23.9591 329.771 23.7754C329.593 23.7754 329.415 23.7754 329.232 23.7754C329.232 23.597 329.232 23.4187 329.232 23.235C328.876 23.235 328.52 23.235 328.154 23.235C328.154 23.0567 328.154 22.8784 328.154 22.6947C321.751 22.6947 315.347 22.6947 308.75 22.6947C308.75 22.873 308.75 23.0513 308.75 23.235C308.394 23.235 308.038 23.235 307.672 23.235C307.672 23.4133 307.672 23.5916 307.672 23.7754C307.494 23.7754 307.316 23.7754 307.133 23.7754C307.133 23.9537 307.133 24.132 307.133 24.3157C306.955 24.3157 306.777 24.3157 306.594 24.3157C306.594 24.8507 306.594 25.3856 306.594 25.9368C306.416 25.9368 306.238 25.9368 306.055 25.9368C306.055 37.7056 306.055 49.4744 306.055 61.5999C303.92 61.5999 301.786 61.5999 299.587 61.5999C299.587 46.6214 299.587 31.6429 299.587 16.2104Z" fill="var(--accent)"/>
<path d="M246.765 16.2104C259.928 16.2104 273.09 16.2104 286.651 16.2104C286.651 16.3888 286.651 16.5671 286.651 16.7508C287.007 16.7508 287.363 16.7508 287.729 16.7508C287.729 16.9291 287.729 17.1074 287.729 17.2912C288.085 17.2912 288.441 17.2912 288.807 17.2912C288.807 17.4695 288.807 17.6478 288.807 17.8315C288.985 17.8315 289.163 17.8315 289.346 17.8315C289.346 18.0098 289.346 18.1881 289.346 18.3719C289.524 18.3719 289.702 18.3719 289.885 18.3719C289.885 18.5502 289.885 18.7285 289.885 18.9122C290.063 18.9122 290.241 18.9122 290.424 18.9122C290.424 19.0905 290.424 19.2688 290.424 19.4526C290.602 19.4526 290.78 19.4526 290.963 19.4526C290.963 19.6309 290.963 19.8092 290.963 19.9929C291.141 19.9929 291.319 19.9929 291.502 19.9929C291.502 20.3495 291.502 20.7062 291.502 21.0736C291.68 21.0736 291.858 21.0736 292.041 21.0736C292.041 21.4302 292.041 21.7869 292.041 22.1543C292.219 22.1543 292.397 22.1543 292.58 22.1543C292.58 35.1714 292.58 48.1884 292.58 61.5999C279.951 61.5999 267.323 61.5999 254.311 61.5999C254.311 61.4216 254.311 61.2433 254.311 61.0596C253.778 61.0596 253.244 61.0596 252.694 61.0596C252.694 60.8813 252.694 60.7029 252.694 60.5192C252.338 60.5192 251.983 60.5192 251.616 60.5192C251.616 60.3409 251.616 60.1626 251.616 59.9789C251.26 59.9789 250.905 59.9789 250.538 59.9789C250.538 59.8006 250.538 59.6222 250.538 59.4385C250.36 59.4385 250.182 59.4385 249.999 59.4385C249.999 59.2602 249.999 59.0819 249.999 58.8982C249.821 58.8982 249.643 58.8982 249.46 58.8982C249.46 58.7199 249.46 58.5415 249.46 58.3578C249.282 58.3578 249.104 58.3578 248.921 58.3578C248.921 58.1795 248.921 58.0012 248.921 57.8175C248.743 57.8175 248.565 57.8175 248.382 57.8175C248.382 57.6391 248.382 57.4608 248.382 57.2771C248.204 57.2771 248.026 57.2771 247.843 57.2771C247.843 56.9205 247.843 56.5639 247.843 56.1964C247.665 56.1964 247.487 56.1964 247.304 56.1964C247.304 55.8398 247.304 55.4831 247.304 55.1157C247.126 55.1157 246.948 55.1157 246.765 55.1157C246.765 48.518 246.765 41.9203 246.765 35.1227C259.75 35.1227 272.734 35.1227 286.112 35.1227C286.112 31.913 286.112 28.7034 286.112 25.3964C285.934 25.3964 285.756 25.3964 285.573 25.3964C285.573 25.0398 285.573 24.6832 285.573 24.3157C285.395 24.3157 285.217 24.3157 285.034 24.3157C285.034 24.1374 285.034 23.9591 285.034 23.7754C284.856 23.7754 284.678 23.7754 284.495 23.7754C284.495 23.597 284.495 23.4187 284.495 23.235C284.139 23.235 283.784 23.235 283.417 23.235C283.417 23.0567 283.417 22.8784 283.417 22.6947C271.322 22.6947 259.227 22.6947 246.765 22.6947C246.765 20.5549 246.765 18.4151 246.765 16.2104ZM253.233 42.1473C253.233 45.357 253.233 48.5667 253.233 51.8736C253.411 51.8736 253.589 51.8736 253.772 51.8736C253.772 52.4086 253.772 52.9435 253.772 53.4947C253.95 53.4947 254.128 53.4947 254.311 53.4947C254.311 53.673 254.311 53.8513 254.311 54.035C254.667 54.035 255.023 54.035 255.389 54.035C255.389 54.2133 255.389 54.3916 255.389 54.5754C265.528 54.5754 275.666 54.5754 286.112 54.5754C286.112 50.4741 286.112 46.3728 286.112 42.1473C275.262 42.1473 264.412 42.1473 253.233 42.1473Z" fill="var(--accent)"/>
<path d="M447.812 16.2104C449.946 16.2104 452.081 16.2104 454.28 16.2104C454.28 27.9793 454.28 39.7481 454.28 51.8736C454.458 51.8736 454.636 51.8736 454.819 51.8736C454.819 52.4086 454.819 52.9435 454.819 53.4947C454.997 53.4947 455.175 53.4947 455.358 53.4947C455.358 53.673 455.358 53.8513 455.358 54.035C455.714 54.035 456.069 54.035 456.436 54.035C456.436 54.2133 456.436 54.3916 456.436 54.5754C465.863 54.5754 475.29 54.5754 485.003 54.5754C485.003 54.397 485.003 54.2187 485.003 54.035C485.359 54.035 485.714 54.035 486.081 54.035C486.081 53.8567 486.081 53.6784 486.081 53.4947C486.259 53.4947 486.437 53.4947 486.62 53.4947C486.62 52.9597 486.62 52.4248 486.62 51.8736C486.798 51.8736 486.976 51.8736 487.159 51.8736C487.159 40.1048 487.159 28.3359 487.159 16.2104C489.293 16.2104 491.428 16.2104 493.627 16.2104C493.627 34.9336 493.627 53.6568 493.627 72.9473C493.449 72.9473 493.271 72.9473 493.088 72.9473C493.088 73.3039 493.088 73.6606 493.088 74.028C492.91 74.028 492.732 74.028 492.549 74.028C492.549 74.3846 492.549 74.7413 492.549 75.1087C492.371 75.1087 492.193 75.1087 492.01 75.1087C492.01 75.287 492.01 75.4653 492.01 75.649C491.832 75.649 491.654 75.649 491.471 75.649C491.471 75.8274 491.471 76.0057 491.471 76.1894C491.293 76.1894 491.115 76.1894 490.932 76.1894C490.932 76.3677 490.932 76.546 490.932 76.7298C490.754 76.7298 490.576 76.7298 490.393 76.7298C490.393 76.9081 490.393 77.0864 490.393 77.2701C490.215 77.2701 490.037 77.2701 489.854 77.2701C489.854 77.4484 489.854 77.6267 489.854 77.8105C489.676 77.8105 489.498 77.8105 489.315 77.8105C489.315 77.9888 489.315 78.1671 489.315 78.3508C488.959 78.3508 488.604 78.3508 488.237 78.3508C488.237 78.5291 488.237 78.7074 488.237 78.8912C487.526 78.8912 486.814 78.8912 486.081 78.8912C486.081 79.0695 486.081 79.2478 486.081 79.4315C476.12 79.4315 466.16 79.4315 455.897 79.4315C455.897 77.1134 455.897 74.7953 455.897 72.4069C465.502 72.4069 475.107 72.4069 485.003 72.4069C485.003 72.2286 485.003 72.0503 485.003 71.8666C485.359 71.8666 485.714 71.8666 486.081 71.8666C486.081 71.51 486.081 71.1533 486.081 70.7859C486.259 70.7859 486.437 70.7859 486.62 70.7859C486.62 70.4293 486.62 70.0726 486.62 69.7052C486.798 69.7052 486.976 69.7052 487.159 69.7052C487.159 67.0305 487.159 64.3557 487.159 61.5999C476.665 61.5999 466.17 61.5999 455.358 61.5999C455.358 61.4216 455.358 61.2433 455.358 61.0596C454.824 61.0596 454.291 61.0596 453.741 61.0596C453.741 60.8813 453.741 60.7029 453.741 60.5192C453.207 60.5192 452.674 60.5192 452.124 60.5192C452.124 60.3409 452.124 60.1626 452.124 59.9789C451.946 59.9789 451.768 59.9789 451.585 59.9789C451.585 59.8006 451.585 59.6222 451.585 59.4385C451.407 59.4385 451.229 59.4385 451.046 59.4385C451.046 59.2602 451.046 59.0819 451.046 58.8982C450.868 58.8982 450.69 58.8982 450.507 58.8982C450.507 58.7199 450.507 58.5415 450.507 58.3578C450.329 58.3578 450.151 58.3578 449.968 58.3578C449.968 58.1795 449.968 58.0012 449.968 57.8175C449.79 57.8175 449.612 57.8175 449.429 57.8175C449.429 57.6392 449.429 57.4608 449.429 57.2771C449.251 57.2771 449.073 57.2771 448.89 57.2771C448.89 56.9205 448.89 56.5639 448.89 56.1964C448.712 56.1964 448.534 56.1964 448.351 56.1964C448.351 55.8398 448.351 55.4832 448.351 55.1157C448.173 55.1157 447.995 55.1157 447.812 55.1157C447.812 42.277 447.812 29.4382 447.812 16.2104Z" fill="var(--accent)"/>
<path d="M565.314 16.2104C567.626 16.2104 569.939 16.2104 572.321 16.2104C572.321 28.1576 572.321 40.1048 572.321 52.414C572.499 52.414 572.677 52.414 572.86 52.414C572.86 52.7706 572.86 53.1272 572.86 53.4947C573.038 53.4947 573.216 53.4947 573.399 53.4947C573.399 53.673 573.399 53.8513 573.399 54.035C573.577 54.035 573.755 54.035 573.938 54.035C573.938 54.2133 573.938 54.3916 573.938 54.5754C583.543 54.5754 593.148 54.5754 603.044 54.5754C603.044 54.397 603.044 54.2187 603.044 54.035C603.222 54.035 603.4 54.035 603.583 54.035C603.583 53.8567 603.583 53.6784 603.583 53.4947C603.761 53.4947 603.939 53.4947 604.122 53.4947C604.122 53.3163 604.122 53.138 604.122 52.9543C604.3 52.9543 604.478 52.9543 604.661 52.9543C604.661 40.8288 604.661 28.7034 604.661 16.2104C606.973 16.2104 609.286 16.2104 611.668 16.2104C611.668 28.8709 611.668 41.5313 611.668 54.5754C611.49 54.5754 611.312 54.5754 611.129 54.5754C611.129 55.1103 611.129 55.6453 611.129 56.1964C610.951 56.1964 610.773 56.1964 610.59 56.1964C610.59 56.553 610.59 56.9097 610.59 57.2771C610.412 57.2771 610.234 57.2771 610.051 57.2771C610.051 57.4554 610.051 57.6337 610.051 57.8175C609.873 57.8175 609.695 57.8175 609.512 57.8175C609.512 57.9958 609.512 58.1741 609.512 58.3578C609.334 58.3578 609.156 58.3578 608.973 58.3578C608.973 58.5361 608.973 58.7144 608.973 58.8982C608.795 58.8982 608.617 58.8982 608.434 58.8982C608.434 59.0765 608.434 59.2548 608.434 59.4385C608.256 59.4385 608.078 59.4385 607.895 59.4385C607.895 59.6168 607.895 59.7951 607.895 59.9789C607.539 59.9789 607.183 59.9789 606.817 59.9789C606.817 60.1572 606.817 60.3355 606.817 60.5192C606.461 60.5192 606.105 60.5192 605.739 60.5192C605.739 60.6975 605.739 60.8759 605.739 61.0596C605.205 61.0596 604.672 61.0596 604.122 61.0596C604.122 61.2379 604.122 61.4162 604.122 61.5999C593.983 61.5999 583.845 61.5999 573.399 61.5999C573.399 61.4216 573.399 61.2433 573.399 61.0596C572.687 61.0596 571.976 61.0596 571.243 61.0596C571.243 60.8813 571.243 60.7029 571.243 60.5192C570.887 60.5192 570.531 60.5192 570.165 60.5192C570.165 60.3409 570.165 60.1626 570.165 59.9789C569.987 59.9789 569.809 59.9789 569.626 59.9789C569.626 59.8006 569.626 59.6222 569.626 59.4385C569.27 59.4385 568.914 59.4385 568.548 59.4385C568.548 59.2602 568.548 59.0819 568.548 58.8982C568.37 58.8982 568.192 58.8982 568.009 58.8982C568.009 58.7199 568.009 58.5415 568.009 58.3578C567.831 58.3578 567.653 58.3578 567.47 58.3578C567.47 58.0012 567.47 57.6446 567.47 57.2771C567.292 57.2771 567.114 57.2771 566.931 57.2771C566.931 57.0988 566.931 56.9205 566.931 56.7368C566.753 56.7368 566.575 56.7368 566.392 56.7368C566.392 56.3801 566.392 56.0235 566.392 55.6561C566.214 55.6561 566.036 55.6561 565.853 55.6561C565.853 54.9428 565.853 54.2295 565.853 53.4947C565.675 53.4947 565.497 53.4947 565.314 53.4947C565.314 41.1909 565.314 28.8871 565.314 16.2104Z" fill="var(--accent)"/>
<path d="M659.1 16.2104C661.235 16.2104 663.369 16.2104 665.568 16.2104C665.568 27.9793 665.568 39.7481 665.568 51.8736C665.746 51.8736 665.924 51.8736 666.107 51.8736C666.107 52.4086 666.107 52.9435 666.107 53.4947C666.285 53.4947 666.463 53.4947 666.646 53.4947C666.646 53.673 666.646 53.8513 666.646 54.035C667.002 54.035 667.358 54.035 667.724 54.035C667.724 54.2133 667.724 54.3916 667.724 54.5754C677.151 54.5754 686.578 54.5754 696.291 54.5754C696.291 54.397 696.291 54.2187 696.291 54.035C696.647 54.035 697.003 54.035 697.369 54.035C697.369 53.8567 697.369 53.6784 697.369 53.4947C697.547 53.4947 697.725 53.4947 697.908 53.4947C697.908 53.138 697.908 52.7814 697.908 52.414C698.086 52.414 698.264 52.414 698.447 52.414C698.447 40.4668 698.447 28.5196 698.447 16.2104C700.582 16.2104 702.716 16.2104 704.915 16.2104C704.915 29.0492 704.915 41.8879 704.915 55.1157C704.737 55.1157 704.559 55.1157 704.376 55.1157C704.376 55.4723 704.376 55.829 704.376 56.1964C704.198 56.1964 704.02 56.1964 703.837 56.1964C703.837 56.553 703.837 56.9097 703.837 57.2771C703.659 57.2771 703.481 57.2771 703.298 57.2771C703.298 57.4554 703.298 57.6337 703.298 57.8175C703.12 57.8175 702.942 57.8175 702.759 57.8175C702.759 57.9958 702.759 58.1741 702.759 58.3578C702.581 58.3578 702.403 58.3578 702.22 58.3578C702.22 58.5361 702.22 58.7144 702.22 58.8982C702.042 58.8982 701.864 58.8982 701.681 58.8982C701.681 59.0765 701.681 59.2548 701.681 59.4385C701.503 59.4385 701.325 59.4385 701.142 59.4385C701.142 59.6168 701.142 59.7951 701.142 59.9789C700.964 59.9789 700.786 59.9789 700.603 59.9789C700.603 60.1572 700.603 60.3355 700.603 60.5192C700.247 60.5192 699.892 60.5192 699.525 60.5192C699.525 60.6975 699.525 60.8759 699.525 61.0596C698.814 61.0596 698.102 61.0596 697.369 61.0596C697.369 61.2379 697.369 61.4162 697.369 61.5999C687.231 61.5999 677.092 61.5999 666.646 61.5999C666.646 61.4216 666.646 61.2433 666.646 61.0596C665.935 61.0596 665.223 61.0596 664.49 61.0596C664.49 60.8813 664.49 60.7029 664.49 60.5192C664.134 60.5192 663.779 60.5192 663.412 60.5192C663.412 60.3409 663.412 60.1626 663.412 59.9789C663.234 59.9789 663.056 59.9789 662.873 59.9789C662.873 59.8006 662.873 59.6222 662.873 59.4385C662.695 59.4385 662.517 59.4385 662.334 59.4385C662.334 59.2602 662.334 59.0819 662.334 58.8982C662.156 58.8982 661.978 58.8982 661.795 58.8982C661.795 58.7199 661.795 58.5415 661.795 58.3578C661.617 58.3578 661.439 58.3578 661.256 58.3578C661.256 58.1795 661.256 58.0012 661.256 57.8175C661.078 57.8175 660.9 57.8175 660.717 57.8175C660.717 57.6391 660.717 57.4608 660.717 57.2771C660.539 57.2771 660.361 57.2771 660.178 57.2771C660.178 56.9205 660.178 56.5639 660.178 56.1964C660 56.1964 659.822 56.1964 659.639 56.1964C659.639 55.8398 659.639 55.4831 659.639 55.1157C659.461 55.1157 659.283 55.1157 659.1 55.1157C659.1 42.277 659.1 29.4382 659.1 16.2104Z" fill="var(--accent)"/>
<path d="M625.143 16.2104C634.748 16.2104 644.353 16.2104 654.249 16.2104C654.249 18.3502 654.249 20.49 654.249 22.6947C645.711 22.6947 637.173 22.6947 628.377 22.6947C628.377 22.873 628.377 23.0513 628.377 23.235C628.021 23.235 627.665 23.235 627.299 23.235C627.299 23.4133 627.299 23.5916 627.299 23.7754C627.121 23.7754 626.943 23.7754 626.76 23.7754C626.76 23.9537 626.76 24.132 626.76 24.3157C626.582 24.3157 626.404 24.3157 626.221 24.3157C626.221 36.6195 626.221 48.9233 626.221 61.5999C623.909 61.5999 621.596 61.5999 619.214 61.5999C619.214 48.7612 619.214 35.9224 619.214 22.6947C619.392 22.6947 619.57 22.6947 619.753 22.6947C619.753 22.1597 619.753 21.6248 619.753 21.0736C619.931 21.0736 620.109 21.0736 620.292 21.0736C620.292 20.8953 620.292 20.717 620.292 20.5333C620.47 20.5333 620.648 20.5333 620.831 20.5333C620.831 20.1766 620.831 19.82 620.831 19.4526C621.009 19.4526 621.187 19.4526 621.37 19.4526C621.37 19.2742 621.37 19.0959 621.37 18.9122C621.548 18.9122 621.726 18.9122 621.909 18.9122C621.909 18.7339 621.909 18.5556 621.909 18.3719C622.087 18.3719 622.265 18.3719 622.448 18.3719C622.448 18.1935 622.448 18.0152 622.448 17.8315C622.626 17.8315 622.804 17.8315 622.987 17.8315C622.987 17.6532 622.987 17.4749 622.987 17.2912C623.343 17.2912 623.698 17.2912 624.065 17.2912C624.065 17.1128 624.065 16.9345 624.065 16.7508C624.421 16.7508 624.776 16.7508 625.143 16.7508C625.143 16.5725 625.143 16.3942 625.143 16.2104Z" fill="var(--accent)"/>
<path d="M541.598 100.505C542.487 100.505 543.376 100.505 544.293 100.505C544.293 100.684 544.293 100.862 544.293 101.046C545.004 101.046 545.716 101.046 546.449 101.046C546.449 101.224 546.449 101.402 546.449 101.586C546.804 101.586 547.16 101.586 547.527 101.586C547.527 101.764 547.527 101.943 547.527 102.126C547.882 102.126 548.238 102.126 548.605 102.126C548.605 102.305 548.605 102.483 548.605 102.667C548.783 102.667 548.96 102.667 549.144 102.667C549.144 102.845 549.144 103.023 549.144 103.207C549.322 103.207 549.499 103.207 549.683 103.207C549.683 103.385 549.683 103.564 549.683 103.747C549.861 103.747 550.038 103.747 550.222 103.747C550.222 102.856 550.222 101.964 550.222 101.046C550.933 101.046 551.645 101.046 552.378 101.046C552.378 107.287 552.378 113.528 552.378 119.958C552.2 119.958 552.022 119.958 551.839 119.958C551.839 120.493 551.839 121.028 551.839 121.579C551.661 121.579 551.483 121.579 551.3 121.579C551.3 121.936 551.3 122.292 551.3 122.66C551.122 122.66 550.944 122.66 550.761 122.66C550.761 123.016 550.761 123.373 550.761 123.74C550.583 123.74 550.405 123.74 550.222 123.74C550.222 123.919 550.222 124.097 550.222 124.281C550.044 124.281 549.866 124.281 549.683 124.281C549.683 124.459 549.683 124.637 549.683 124.821C549.327 124.821 548.971 124.821 548.605 124.821C548.605 124.999 548.605 125.178 548.605 125.362C548.071 125.362 547.538 125.362 546.988 125.362C546.988 125.54 546.988 125.718 546.988 125.902C544.498 125.902 542.007 125.902 539.442 125.902C539.442 125.724 539.442 125.545 539.442 125.362C538.908 125.362 538.375 125.362 537.825 125.362C537.825 125.183 537.825 125.005 537.825 124.821C537.469 124.821 537.113 124.821 536.747 124.821C536.747 124.643 536.747 124.465 536.747 124.281C536.569 124.281 536.391 124.281 536.208 124.281C536.208 124.102 536.208 123.924 536.208 123.74C535.852 123.74 535.496 123.74 535.13 123.74C535.13 123.206 535.13 122.671 535.13 122.119C535.308 122.119 535.485 122.119 535.669 122.119C535.669 121.941 535.669 121.763 535.669 121.579C536.202 121.579 536.736 121.579 537.286 121.579C537.286 121.757 537.286 121.936 537.286 122.119C537.464 122.119 537.641 122.119 537.825 122.119C537.825 122.298 537.825 122.476 537.825 122.66C538.18 122.66 538.536 122.66 538.903 122.66C538.903 122.838 538.903 123.016 538.903 123.2C539.436 123.2 539.97 123.2 540.52 123.2C540.52 123.378 540.52 123.557 540.52 123.74C542.476 123.74 544.433 123.74 546.449 123.74C546.449 123.562 546.449 123.384 546.449 123.2C546.804 123.2 547.16 123.2 547.527 123.2C547.527 123.022 547.527 122.843 547.527 122.66C547.705 122.66 547.882 122.66 548.066 122.66C548.066 122.481 548.066 122.303 548.066 122.119C548.244 122.119 548.421 122.119 548.605 122.119C548.605 121.941 548.605 121.763 548.605 121.579C548.783 121.579 548.96 121.579 549.144 121.579C549.144 121.222 549.144 120.866 549.144 120.498C549.322 120.498 549.499 120.498 549.683 120.498C549.683 119.963 549.683 119.428 549.683 118.877C549.861 118.877 550.038 118.877 550.222 118.877C550.222 117.807 550.222 116.738 550.222 115.635C550.044 115.635 549.866 115.635 549.683 115.635C549.683 115.814 549.683 115.992 549.683 116.176C549.505 116.176 549.327 116.176 549.144 116.176C549.144 116.354 549.144 116.532 549.144 116.716C548.966 116.716 548.788 116.716 548.605 116.716C548.605 116.894 548.605 117.073 548.605 117.256C548.249 117.256 547.893 117.256 547.527 117.256C547.527 117.435 547.527 117.613 547.527 117.797C547.171 117.797 546.815 117.797 546.449 117.797C546.449 117.975 546.449 118.153 546.449 118.337C545.382 118.337 544.314 118.337 543.215 118.337C543.215 118.515 543.215 118.694 543.215 118.877C543.037 118.877 542.859 118.877 542.676 118.877C542.676 118.699 542.676 118.521 542.676 118.337C541.609 118.337 540.541 118.337 539.442 118.337C539.442 118.159 539.442 117.98 539.442 117.797C539.086 117.797 538.73 117.797 538.364 117.797C538.364 117.618 538.364 117.44 538.364 117.256C538.008 117.256 537.652 117.256 537.286 117.256C537.286 117.078 537.286 116.9 537.286 116.716C537.108 116.716 536.93 116.716 536.747 116.716C536.747 116.538 536.747 116.359 536.747 116.176C536.569 116.176 536.391 116.176 536.208 116.176C536.208 115.997 536.208 115.819 536.208 115.635C536.03 115.635 535.852 115.635 535.669 115.635C535.669 115.457 535.669 115.279 535.669 115.095C535.491 115.095 535.313 115.095 535.13 115.095C535.13 114.738 535.13 114.382 535.13 114.014C534.952 114.014 534.774 114.014 534.591 114.014C534.591 113.658 534.591 113.301 534.591 112.933C534.413 112.933 534.235 112.933 534.052 112.933C534.052 110.794 534.052 108.654 534.052 106.449C534.23 106.449 534.407 106.449 534.591 106.449C534.591 105.914 534.591 105.379 534.591 104.828C534.769 104.828 534.946 104.828 535.13 104.828C535.13 104.65 535.13 104.472 535.13 104.288C535.308 104.288 535.485 104.288 535.669 104.288C535.669 104.11 535.669 103.931 535.669 103.747C535.847 103.747 536.024 103.747 536.208 103.747C536.208 103.569 536.208 103.391 536.208 103.207C536.386 103.207 536.563 103.207 536.747 103.207C536.747 103.029 536.747 102.85 536.747 102.667C536.925 102.667 537.102 102.667 537.286 102.667C537.286 102.488 537.286 102.31 537.286 102.126C537.464 102.126 537.641 102.126 537.825 102.126C537.825 101.948 537.825 101.77 537.825 101.586C538.358 101.586 538.892 101.586 539.442 101.586C539.442 101.408 539.442 101.229 539.442 101.046C540.153 101.046 540.865 101.046 541.598 101.046C541.598 100.867 541.598 100.689 541.598 100.505ZM541.598 102.667C541.598 102.845 541.598 103.023 541.598 103.207C541.064 103.207 540.531 103.207 539.981 103.207C539.981 103.385 539.981 103.564 539.981 103.747C539.625 103.747 539.269 103.747 538.903 103.747C538.903 103.926 538.903 104.104 538.903 104.288C538.725 104.288 538.547 104.288 538.364 104.288C538.364 104.466 538.364 104.644 538.364 104.828C538.186 104.828 538.008 104.828 537.825 104.828C537.825 105.006 537.825 105.185 537.825 105.369C537.647 105.369 537.469 105.369 537.286 105.369C537.286 105.725 537.286 106.082 537.286 106.449C537.108 106.449 536.93 106.449 536.747 106.449C536.747 106.806 536.747 107.162 536.747 107.53C536.569 107.53 536.391 107.53 536.208 107.53C536.208 108.956 536.208 110.383 536.208 111.853C536.386 111.853 536.563 111.853 536.747 111.853C536.747 112.209 536.747 112.566 536.747 112.933C536.925 112.933 537.102 112.933 537.286 112.933C537.286 113.29 537.286 113.647 537.286 114.014C537.464 114.014 537.641 114.014 537.825 114.014C537.825 114.192 537.825 114.371 537.825 114.554C538.003 114.554 538.18 114.554 538.364 114.554C538.364 114.733 538.364 114.911 538.364 115.095C538.719 115.095 539.075 115.095 539.442 115.095C539.442 115.273 539.442 115.451 539.442 115.635C539.62 115.635 539.797 115.635 539.981 115.635C539.981 115.814 539.981 115.992 539.981 116.176C540.692 116.176 541.404 116.176 542.137 116.176C542.137 116.354 542.137 116.532 542.137 116.716C542.848 116.716 543.56 116.716 544.293 116.716C544.293 116.538 544.293 116.359 544.293 116.176C544.826 116.176 545.36 116.176 545.91 116.176C545.91 115.997 545.91 115.819 545.91 115.635C546.265 115.635 546.621 115.635 546.988 115.635C546.988 115.457 546.988 115.279 546.988 115.095C547.166 115.095 547.343 115.095 547.527 115.095C547.527 114.917 547.527 114.738 547.527 114.554C547.705 114.554 547.882 114.554 548.066 114.554C548.066 114.376 548.066 114.198 548.066 114.014C548.244 114.014 548.421 114.014 548.605 114.014C548.605 113.836 548.605 113.658 548.605 113.474C548.783 113.474 548.96 113.474 549.144 113.474C549.144 113.117 549.144 112.761 549.144 112.393C549.322 112.393 549.499 112.393 549.683 112.393C549.683 112.036 549.683 111.68 549.683 111.312C549.861 111.312 550.038 111.312 550.222 111.312C550.222 110.242 550.222 109.173 550.222 108.07C550.044 108.07 549.866 108.07 549.683 108.07C549.683 107.535 549.683 107 549.683 106.449C549.505 106.449 549.327 106.449 549.144 106.449C549.144 106.271 549.144 106.093 549.144 105.909C548.966 105.909 548.788 105.909 548.605 105.909C548.605 105.552 548.605 105.196 548.605 104.828C548.427 104.828 548.249 104.828 548.066 104.828C548.066 104.65 548.066 104.472 548.066 104.288C547.71 104.288 547.354 104.288 546.988 104.288C546.988 104.11 546.988 103.931 546.988 103.747C546.632 103.747 546.276 103.747 545.91 103.747C545.91 103.569 545.91 103.391 545.91 103.207C545.376 103.207 544.843 103.207 544.293 103.207C544.293 103.029 544.293 102.85 544.293 102.667C543.403 102.667 542.514 102.667 541.598 102.667Z" fill="var(--accent)"/>
<path d="M289.885 101.046C290.774 101.046 291.663 101.046 292.58 101.046C292.58 101.402 292.58 101.759 292.58 102.126C292.758 102.126 292.936 102.126 293.119 102.126C293.119 102.661 293.119 103.196 293.119 103.747C293.297 103.747 293.475 103.747 293.658 103.747C293.658 104.282 293.658 104.817 293.658 105.368C293.836 105.368 294.014 105.368 294.197 105.368C294.197 105.725 294.197 106.082 294.197 106.449C294.375 106.449 294.553 106.449 294.736 106.449C294.736 106.984 294.736 107.519 294.736 108.07C294.914 108.07 295.092 108.07 295.275 108.07C295.275 108.605 295.275 109.14 295.275 109.691C295.453 109.691 295.631 109.691 295.814 109.691C295.814 110.048 295.814 110.405 295.814 110.772C295.992 110.772 296.17 110.772 296.353 110.772C296.353 111.307 296.353 111.842 296.353 112.393C296.531 112.393 296.709 112.393 296.892 112.393C296.892 112.928 296.892 113.463 296.892 114.014C297.07 114.014 297.248 114.014 297.431 114.014C297.431 114.549 297.431 115.084 297.431 115.635C297.787 115.635 298.142 115.635 298.509 115.635C298.509 115.1 298.509 114.565 298.509 114.014C298.687 114.014 298.865 114.014 299.048 114.014C299.048 113.479 299.048 112.944 299.048 112.393C299.226 112.393 299.404 112.393 299.587 112.393C299.587 112.036 299.587 111.68 299.587 111.312C299.765 111.312 299.943 111.312 300.126 111.312C300.126 110.777 300.126 110.242 300.126 109.691C300.304 109.691 300.482 109.691 300.665 109.691C300.665 109.156 300.665 108.621 300.665 108.07C300.843 108.07 301.021 108.07 301.204 108.07C301.204 107.714 301.204 107.357 301.204 106.99C301.382 106.99 301.56 106.99 301.743 106.99C301.743 106.455 301.743 105.92 301.743 105.368C301.921 105.368 302.099 105.368 302.282 105.368C302.282 105.012 302.282 104.655 302.282 104.288C302.46 104.288 302.638 104.288 302.821 104.288C302.821 103.753 302.821 103.218 302.821 102.667C302.999 102.667 303.177 102.667 303.36 102.667C303.36 102.132 303.36 101.597 303.36 101.046C304.249 101.046 305.138 101.046 306.055 101.046C306.055 101.402 306.055 101.759 306.055 102.126C306.233 102.126 306.411 102.126 306.594 102.126C306.594 102.661 306.594 103.196 306.594 103.747C306.772 103.747 306.95 103.747 307.133 103.747C307.133 104.282 307.133 104.817 307.133 105.368C307.311 105.368 307.489 105.368 307.672 105.368C307.672 105.725 307.672 106.082 307.672 106.449C307.85 106.449 308.028 106.449 308.211 106.449C308.211 106.984 308.211 107.519 308.211 108.07C308.389 108.07 308.567 108.07 308.75 108.07C308.75 108.427 308.75 108.783 308.75 109.151C308.928 109.151 309.106 109.151 309.289 109.151C309.289 109.686 309.289 110.221 309.289 110.772C309.467 110.772 309.645 110.772 309.828 110.772C309.828 111.307 309.828 111.842 309.828 112.393C310.006 112.393 310.184 112.393 310.367 112.393C310.367 112.75 310.367 113.106 310.367 113.474C310.545 113.474 310.723 113.474 310.906 113.474C310.906 114.009 310.906 114.544 310.906 115.095C311.084 115.095 311.262 115.095 311.445 115.095C311.445 115.273 311.445 115.451 311.445 115.635C311.623 115.635 311.801 115.635 311.984 115.635C311.984 115.1 311.984 114.565 311.984 114.014C312.162 114.014 312.34 114.014 312.523 114.014C312.523 113.657 312.523 113.301 312.523 112.933C312.701 112.933 312.879 112.933 313.062 112.933C313.062 112.398 313.062 111.863 313.062 111.312C313.24 111.312 313.418 111.312 313.601 111.312C313.601 110.777 313.601 110.242 313.601 109.691C313.779 109.691 313.957 109.691 314.14 109.691C314.14 109.335 314.14 108.978 314.14 108.611C314.318 108.611 314.496 108.611 314.679 108.611C314.679 108.076 314.679 107.541 314.679 106.99C314.857 106.99 315.035 106.99 315.218 106.99C315.218 106.455 315.218 105.92 315.218 105.368C315.396 105.368 315.574 105.368 315.757 105.368C315.757 105.012 315.757 104.655 315.757 104.288C315.935 104.288 316.113 104.288 316.296 104.288C316.296 103.753 316.296 103.218 316.296 102.667C316.474 102.667 316.652 102.667 316.835 102.667C316.835 102.31 316.835 101.953 316.835 101.586C317.013 101.586 317.191 101.586 317.374 101.586C317.374 101.408 317.374 101.229 317.374 101.046C318.085 101.046 318.797 101.046 319.53 101.046C319.53 101.224 319.53 101.402 319.53 101.586C319.352 101.586 319.174 101.586 318.991 101.586C318.991 102.121 318.991 102.656 318.991 103.207C318.813 103.207 318.635 103.207 318.452 103.207C318.452 103.742 318.452 104.277 318.452 104.828C318.274 104.828 318.096 104.828 317.913 104.828C317.913 105.185 317.913 105.541 317.913 105.909C317.735 105.909 317.557 105.909 317.374 105.909C317.374 106.444 317.374 106.979 317.374 107.53C317.196 107.53 317.018 107.53 316.835 107.53C316.835 108.065 316.835 108.6 316.835 109.151C316.657 109.151 316.479 109.151 316.296 109.151C316.296 109.508 316.296 109.864 316.296 110.232C316.118 110.232 315.94 110.232 315.757 110.232C315.757 110.767 315.757 111.302 315.757 111.853C315.579 111.853 315.401 111.853 315.218 111.853C315.218 112.209 315.218 112.566 315.218 112.933C315.04 112.933 314.862 112.933 314.679 112.933C314.679 113.468 314.679 114.003 314.679 114.554C314.501 114.554 314.323 114.554 314.14 114.554C314.14 115.089 314.14 115.624 314.14 116.175C313.962 116.175 313.784 116.175 313.601 116.175C313.601 116.532 313.601 116.889 313.601 117.256C313.423 117.256 313.245 117.256 313.062 117.256C313.062 117.791 313.062 118.326 313.062 118.877C312.884 118.877 312.706 118.877 312.523 118.877C312.523 119.056 312.523 119.234 312.523 119.418C311.811 119.418 311.1 119.418 310.367 119.418C310.367 119.061 310.367 118.704 310.367 118.337C310.189 118.337 310.011 118.337 309.828 118.337C309.828 117.802 309.828 117.267 309.828 116.716C309.65 116.716 309.472 116.716 309.289 116.716C309.289 116.359 309.289 116.003 309.289 115.635C309.111 115.635 308.933 115.635 308.75 115.635C308.75 115.1 308.75 114.565 308.75 114.014C308.572 114.014 308.394 114.014 308.211 114.014C308.211 113.657 308.211 113.301 308.211 112.933C308.033 112.933 307.855 112.933 307.672 112.933C307.672 112.398 307.672 111.863 307.672 111.312C307.494 111.312 307.316 111.312 307.133 111.312C307.133 110.777 307.133 110.242 307.133 109.691C306.955 109.691 306.777 109.691 306.594 109.691C306.594 109.335 306.594 108.978 306.594 108.611C306.416 108.611 306.238 108.611 306.055 108.611C306.055 108.076 306.055 107.541 306.055 106.99C305.877 106.99 305.699 106.99 305.516 106.99C305.516 106.633 305.516 106.276 305.516 105.909C305.338 105.909 305.16 105.909 304.977 105.909C304.977 105.552 304.977 105.196 304.977 104.828C304.799 104.828 304.621 104.828 304.438 104.828C304.438 105.185 304.438 105.541 304.438 105.909C304.26 105.909 304.082 105.909 303.899 105.909C303.899 106.444 303.899 106.979 303.899 107.53C303.721 107.53 303.543 107.53 303.36 107.53C303.36 107.886 303.36 108.243 303.36 108.611C303.182 108.611 303.004 108.611 302.821 108.611C302.821 109.146 302.821 109.68 302.821 110.232C302.643 110.232 302.465 110.232 302.282 110.232C302.282 110.588 302.282 110.945 302.282 111.312C302.104 111.312 301.926 111.312 301.743 111.312C301.743 111.847 301.743 112.382 301.743 112.933C301.565 112.933 301.387 112.933 301.204 112.933C301.204 113.29 301.204 113.647 301.204 114.014C301.026 114.014 300.848 114.014 300.665 114.014C300.665 114.549 300.665 115.084 300.665 115.635C300.487 115.635 300.309 115.635 300.126 115.635C300.126 116.17 300.126 116.705 300.126 117.256C299.948 117.256 299.77 117.256 299.587 117.256C299.587 117.613 299.587 117.969 299.587 118.337C299.409 118.337 299.231 118.337 299.048 118.337C299.048 118.694 299.048 119.05 299.048 119.418C298.336 119.418 297.625 119.418 296.892 119.418C296.892 119.061 296.892 118.704 296.892 118.337C296.714 118.337 296.536 118.337 296.353 118.337C296.353 117.98 296.353 117.624 296.353 117.256C296.175 117.256 295.997 117.256 295.814 117.256C295.814 116.721 295.814 116.186 295.814 115.635C295.636 115.635 295.458 115.635 295.275 115.635C295.275 115.278 295.275 114.922 295.275 114.554C295.097 114.554 294.919 114.554 294.736 114.554C294.736 114.019 294.736 113.485 294.736 112.933C294.558 112.933 294.38 112.933 294.197 112.933C294.197 112.398 294.197 111.863 294.197 111.312C294.019 111.312 293.841 111.312 293.658 111.312C293.658 110.956 293.658 110.599 293.658 110.232C293.48 110.232 293.302 110.232 293.119 110.232C293.119 109.697 293.119 109.162 293.119 108.611C292.941 108.611 292.763 108.611 292.58 108.611C292.58 108.076 292.58 107.541 292.58 106.99C292.402 106.99 292.224 106.99 292.041 106.99C292.041 106.633 292.041 106.276 292.041 105.909C291.863 105.909 291.685 105.909 291.502 105.909C291.502 105.374 291.502 104.839 291.502 104.288C291.324 104.288 291.146 104.288 290.963 104.288C290.963 103.753 290.963 103.218 290.963 102.667C290.785 102.667 290.607 102.667 290.424 102.667C290.424 102.31 290.424 101.953 290.424 101.586C290.246 101.586 290.068 101.586 289.885 101.586C289.885 101.408 289.885 101.229 289.885 101.046Z" fill="var(--accent)"/>
<path d="M474.762 100.505C475.651 100.505 476.541 100.505 477.457 100.505C477.457 100.684 477.457 100.862 477.457 101.046C478.168 101.046 478.88 101.046 479.613 101.046C479.613 101.224 479.613 101.402 479.613 101.586C479.969 101.586 480.324 101.586 480.691 101.586C480.691 101.764 480.691 101.943 480.691 102.126C481.047 102.126 481.402 102.126 481.769 102.126C481.769 102.305 481.769 102.483 481.769 102.667C481.947 102.667 482.125 102.667 482.308 102.667C482.308 102.845 482.308 103.023 482.308 103.207C482.486 103.207 482.664 103.207 482.847 103.207C482.847 103.385 482.847 103.564 482.847 103.747C483.025 103.747 483.203 103.747 483.386 103.747C483.386 103.926 483.386 104.104 483.386 104.288C483.564 104.288 483.742 104.288 483.925 104.288C483.925 104.644 483.925 105.001 483.925 105.369C484.103 105.369 484.281 105.369 484.464 105.369C484.464 105.725 484.464 106.082 484.464 106.449C484.642 106.449 484.82 106.449 485.003 106.449C485.003 108.767 485.003 111.085 485.003 113.474C484.825 113.474 484.647 113.474 484.464 113.474C484.464 114.009 484.464 114.544 484.464 115.095C484.286 115.095 484.108 115.095 483.925 115.095C483.925 115.273 483.925 115.451 483.925 115.635C483.747 115.635 483.569 115.635 483.386 115.635C483.386 115.992 483.386 116.348 483.386 116.716C483.208 116.716 483.03 116.716 482.847 116.716C482.847 116.894 482.847 117.073 482.847 117.256C482.669 117.256 482.491 117.256 482.308 117.256C482.308 117.435 482.308 117.613 482.308 117.797C481.952 117.797 481.596 117.797 481.23 117.797C481.23 117.975 481.23 118.153 481.23 118.337C480.874 118.337 480.518 118.337 480.152 118.337C480.152 118.515 480.152 118.694 480.152 118.877C479.618 118.877 479.085 118.877 478.535 118.877C478.535 119.056 478.535 119.234 478.535 119.418C476.934 119.418 475.333 119.418 473.684 119.418C473.684 119.239 473.684 119.061 473.684 118.877C473.15 118.877 472.617 118.877 472.067 118.877C472.067 118.699 472.067 118.521 472.067 118.337C471.889 118.337 471.711 118.337 471.528 118.337C471.528 118.159 471.528 117.98 471.528 117.797C471.172 117.797 470.816 117.797 470.45 117.797C470.45 117.618 470.45 117.44 470.45 117.256C470.272 117.256 470.094 117.256 469.911 117.256C469.911 117.078 469.911 116.9 469.911 116.716C469.733 116.716 469.555 116.716 469.372 116.716C469.372 119.747 469.372 122.779 469.372 125.902C468.66 125.902 467.949 125.902 467.216 125.902C467.216 117.699 467.216 109.497 467.216 101.046C467.927 101.046 468.639 101.046 469.372 101.046C469.372 101.937 469.372 102.829 469.372 103.747C469.55 103.747 469.728 103.747 469.911 103.747C469.911 103.569 469.911 103.391 469.911 103.207C470.089 103.207 470.267 103.207 470.45 103.207C470.45 103.029 470.45 102.85 470.45 102.667C470.628 102.667 470.806 102.667 470.989 102.667C470.989 102.488 470.989 102.31 470.989 102.126C471.167 102.126 471.345 102.126 471.528 102.126C471.528 101.948 471.528 101.77 471.528 101.586C471.884 101.586 472.239 101.586 472.606 101.586C472.606 101.408 472.606 101.229 472.606 101.046C473.317 101.046 474.029 101.046 474.762 101.046C474.762 100.867 474.762 100.689 474.762 100.505ZM474.762 102.667C474.762 102.845 474.762 103.023 474.762 103.207C474.228 103.207 473.695 103.207 473.145 103.207C473.145 103.385 473.145 103.564 473.145 103.747C472.789 103.747 472.433 103.747 472.067 103.747C472.067 103.926 472.067 104.104 472.067 104.288C471.889 104.288 471.711 104.288 471.528 104.288C471.528 104.466 471.528 104.644 471.528 104.828C471.35 104.828 471.172 104.828 470.989 104.828C470.989 105.006 470.989 105.185 470.989 105.369C470.811 105.369 470.633 105.369 470.45 105.369C470.45 105.725 470.45 106.082 470.45 106.449C470.272 106.449 470.094 106.449 469.911 106.449C469.911 106.806 469.911 107.162 469.911 107.53C469.733 107.53 469.555 107.53 469.372 107.53C469.372 109.135 469.372 110.74 469.372 112.393C469.55 112.393 469.728 112.393 469.911 112.393C469.911 112.928 469.911 113.463 469.911 114.014C470.089 114.014 470.267 114.014 470.45 114.014C470.45 114.192 470.45 114.371 470.45 114.554C470.628 114.554 470.806 114.554 470.989 114.554C470.989 114.733 470.989 114.911 470.989 115.095C471.167 115.095 471.345 115.095 471.528 115.095C471.528 115.273 471.528 115.451 471.528 115.635C471.706 115.635 471.884 115.635 472.067 115.635C472.067 115.814 472.067 115.992 472.067 116.176C472.245 116.176 472.423 116.176 472.606 116.176C472.606 116.354 472.606 116.532 472.606 116.716C473.139 116.716 473.673 116.716 474.223 116.716C474.223 116.894 474.223 117.073 474.223 117.256C475.468 117.256 476.713 117.256 477.996 117.256C477.996 117.078 477.996 116.9 477.996 116.716C478.529 116.716 479.063 116.716 479.613 116.716C479.613 116.538 479.613 116.359 479.613 116.176C479.791 116.176 479.969 116.176 480.152 116.176C480.152 115.997 480.152 115.819 480.152 115.635C480.33 115.635 480.508 115.635 480.691 115.635C480.691 115.457 480.691 115.279 480.691 115.095C480.869 115.095 481.047 115.095 481.23 115.095C481.23 114.917 481.23 114.738 481.23 114.554C481.408 114.554 481.586 114.554 481.769 114.554C481.769 114.376 481.769 114.198 481.769 114.014C481.947 114.014 482.125 114.014 482.308 114.014C482.308 113.479 482.308 112.944 482.308 112.393C482.486 112.393 482.664 112.393 482.847 112.393C482.847 110.788 482.847 109.183 482.847 107.53C482.669 107.53 482.491 107.53 482.308 107.53C482.308 107.173 482.308 106.817 482.308 106.449C482.13 106.449 481.952 106.449 481.769 106.449C481.769 106.093 481.769 105.736 481.769 105.369C481.591 105.369 481.413 105.369 481.23 105.369C481.23 105.19 481.23 105.012 481.23 104.828C481.052 104.828 480.874 104.828 480.691 104.828C480.691 104.65 480.691 104.472 480.691 104.288C480.513 104.288 480.335 104.288 480.152 104.288C480.152 104.11 480.152 103.931 480.152 103.747C479.796 103.747 479.44 103.747 479.074 103.747C479.074 103.569 479.074 103.391 479.074 103.207C478.54 103.207 478.007 103.207 477.457 103.207C477.457 103.029 477.457 102.85 477.457 102.667C476.567 102.667 475.678 102.667 474.762 102.667Z" fill="#E8E8E8"/>
<path d="M450.507 94.5615C452.464 94.5615 454.42 94.5615 456.436 94.5615C456.436 94.7398 456.436 94.9182 456.436 95.1019C457.148 95.1019 457.859 95.1019 458.592 95.1019C458.592 95.2802 458.592 95.4585 458.592 95.6422C458.948 95.6422 459.304 95.6422 459.67 95.6422C459.67 95.8205 459.67 95.9989 459.67 96.1826C460.026 96.1826 460.382 96.1826 460.748 96.1826C460.748 96.3609 460.748 96.5392 460.748 96.7229C460.926 96.7229 461.104 96.7229 461.287 96.7229C461.287 96.9012 461.287 97.0796 461.287 97.2633C461.109 97.2633 460.931 97.2633 460.748 97.2633C460.748 97.6199 460.748 97.9765 460.748 98.344C460.57 98.344 460.392 98.344 460.209 98.344C460.209 98.5223 460.209 98.7006 460.209 98.8843C460.031 98.8843 459.853 98.8843 459.67 98.8843C459.67 98.706 459.67 98.5277 459.67 98.344C459.492 98.344 459.314 98.344 459.131 98.344C459.131 98.1657 459.131 97.9873 459.131 97.8036C458.597 97.8036 458.064 97.8036 457.514 97.8036C457.514 97.6253 457.514 97.447 457.514 97.2633C456.98 97.2633 456.447 97.2633 455.897 97.2633C455.897 97.085 455.897 96.9066 455.897 96.7229C454.296 96.7229 452.695 96.7229 451.046 96.7229C451.046 96.9012 451.046 97.0796 451.046 97.2633C450.512 97.2633 449.979 97.2633 449.429 97.2633C449.429 97.4416 449.429 97.6199 449.429 97.8036C449.251 97.8036 449.073 97.8036 448.89 97.8036C448.89 97.9819 448.89 98.1603 448.89 98.344C448.712 98.344 448.534 98.344 448.351 98.344C448.351 98.5223 448.351 98.7006 448.351 98.8843C448.173 98.8843 447.995 98.8843 447.812 98.8843C447.812 99.0626 447.812 99.241 447.812 99.4247C447.634 99.4247 447.456 99.4247 447.273 99.4247C447.273 100.495 447.273 101.564 447.273 102.667C447.451 102.667 447.629 102.667 447.812 102.667C447.812 103.023 447.812 103.38 447.812 103.747C448.168 103.747 448.524 103.747 448.89 103.747C448.89 103.926 448.89 104.104 448.89 104.288C449.068 104.288 449.246 104.288 449.429 104.288C449.429 104.466 449.429 104.644 449.429 104.828C449.785 104.828 450.141 104.828 450.507 104.828C450.507 105.007 450.507 105.185 450.507 105.369C451.219 105.369 451.93 105.369 452.663 105.369C452.663 105.547 452.663 105.725 452.663 105.909C453.375 105.909 454.086 105.909 454.819 105.909C454.819 106.087 454.819 106.266 454.819 106.449C455.353 106.449 455.886 106.449 456.436 106.449C456.436 106.628 456.436 106.806 456.436 106.99C456.97 106.99 457.503 106.99 458.053 106.99C458.053 107.168 458.053 107.346 458.053 107.53C458.409 107.53 458.765 107.53 459.131 107.53C459.131 107.708 459.131 107.887 459.131 108.07C459.487 108.07 459.843 108.07 460.209 108.07C460.209 108.249 460.209 108.427 460.209 108.611C460.387 108.611 460.565 108.611 460.748 108.611C460.748 108.789 460.748 108.967 460.748 109.151C460.926 109.151 461.104 109.151 461.287 109.151C461.287 109.508 461.287 109.864 461.287 110.232C461.465 110.232 461.643 110.232 461.826 110.232C461.826 112.015 461.826 113.798 461.826 115.635C461.648 115.635 461.47 115.635 461.287 115.635C461.287 115.992 461.287 116.348 461.287 116.716C461.109 116.716 460.931 116.716 460.748 116.716C460.748 116.894 460.748 117.073 460.748 117.256C460.57 117.256 460.392 117.256 460.209 117.256C460.209 117.435 460.209 117.613 460.209 117.797C459.853 117.797 459.498 117.797 459.131 117.797C459.131 117.975 459.131 118.153 459.131 118.337C458.775 118.337 458.42 118.337 458.053 118.337C458.053 118.515 458.053 118.694 458.053 118.877C457.519 118.877 456.986 118.877 456.436 118.877C456.436 119.056 456.436 119.234 456.436 119.418C454.302 119.418 452.167 119.418 449.968 119.418C449.968 119.239 449.968 119.061 449.968 118.877C449.434 118.877 448.901 118.877 448.351 118.877C448.351 118.699 448.351 118.521 448.351 118.337C447.817 118.337 447.284 118.337 446.734 118.337C446.734 118.159 446.734 117.98 446.734 117.797C446.378 117.797 446.023 117.797 445.656 117.797C445.656 117.618 445.656 117.44 445.656 117.256C445.478 117.256 445.3 117.256 445.117 117.256C445.117 117.078 445.117 116.9 445.117 116.716C444.939 116.716 444.761 116.716 444.578 116.716C444.578 116.538 444.578 116.359 444.578 116.176C444.4 116.176 444.222 116.176 444.039 116.176C444.039 115.997 444.039 115.819 444.039 115.635C444.217 115.635 444.395 115.635 444.578 115.635C444.578 115.279 444.578 114.922 444.578 114.555C445.112 114.555 445.645 114.555 446.195 114.555C446.195 114.733 446.195 114.911 446.195 115.095C446.373 115.095 446.551 115.095 446.734 115.095C446.734 115.273 446.734 115.451 446.734 115.635C447.09 115.635 447.446 115.635 447.812 115.635C447.812 115.814 447.812 115.992 447.812 116.176C448.168 116.176 448.524 116.176 448.89 116.176C448.89 116.354 448.89 116.532 448.89 116.716C449.424 116.716 449.957 116.716 450.507 116.716C450.507 116.894 450.507 117.073 450.507 117.256C452.286 117.256 454.064 117.256 455.897 117.256C455.897 117.078 455.897 116.9 455.897 116.716C456.431 116.716 456.964 116.716 457.514 116.716C457.514 116.538 457.514 116.359 457.514 116.176C457.692 116.176 457.87 116.176 458.053 116.176C458.053 115.997 458.053 115.819 458.053 115.635C458.231 115.635 458.409 115.635 458.592 115.635C458.592 115.457 458.592 115.279 458.592 115.095C458.77 115.095 458.948 115.095 459.131 115.095C459.131 114.917 459.131 114.738 459.131 114.555C459.309 114.555 459.487 114.555 459.67 114.555C459.67 113.485 459.67 112.415 459.67 111.312C459.492 111.312 459.314 111.312 459.131 111.312C459.131 111.134 459.131 110.956 459.131 110.772C458.953 110.772 458.775 110.772 458.592 110.772C458.592 110.594 458.592 110.415 458.592 110.232C458.414 110.232 458.236 110.232 458.053 110.232C458.053 110.053 458.053 109.875 458.053 109.691C457.697 109.691 457.342 109.691 456.975 109.691C456.975 109.513 456.975 109.335 456.975 109.151C456.619 109.151 456.264 109.151 455.897 109.151C455.897 108.973 455.897 108.794 455.897 108.611C455.186 108.611 454.474 108.611 453.741 108.611C453.741 108.432 453.741 108.254 453.741 108.07C453.03 108.07 452.318 108.07 451.585 108.07C451.585 107.892 451.585 107.714 451.585 107.53C451.051 107.53 450.518 107.53 449.968 107.53C449.968 107.352 449.968 107.173 449.968 106.99C449.434 106.99 448.901 106.99 448.351 106.99C448.351 106.811 448.351 106.633 448.351 106.449C447.995 106.449 447.64 106.449 447.273 106.449C447.273 106.271 447.273 106.093 447.273 105.909C447.095 105.909 446.917 105.909 446.734 105.909C446.734 105.731 446.734 105.552 446.734 105.369C446.556 105.369 446.378 105.369 446.195 105.369C446.195 105.19 446.195 105.012 446.195 104.828C446.017 104.828 445.839 104.828 445.656 104.828C445.656 104.472 445.656 104.115 445.656 103.747C445.478 103.747 445.3 103.747 445.117 103.747C445.117 101.964 445.117 100.181 445.117 98.344C445.295 98.344 445.473 98.344 445.656 98.344C445.656 98.1657 445.656 97.9873 445.656 97.8036C445.834 97.8036 446.012 97.8036 446.195 97.8036C446.195 97.447 446.195 97.0904 446.195 96.7229C446.373 96.7229 446.551 96.7229 446.734 96.7229C446.734 96.5446 446.734 96.3663 446.734 96.1826C447.09 96.1826 447.446 96.1826 447.812 96.1826C447.812 96.0043 447.812 95.8259 447.812 95.6422C448.168 95.6422 448.524 95.6422 448.89 95.6422C448.89 95.4639 448.89 95.2856 448.89 95.1019C449.424 95.1019 449.957 95.1019 450.507 95.1019C450.507 94.9236 450.507 94.7452 450.507 94.5615Z" fill="var(--accent)"/>
<path d="M399.302 100.505C400.191 100.505 401.081 100.505 401.997 100.505C401.997 100.684 401.997 100.862 401.997 101.046C402.708 101.046 403.42 101.046 404.153 101.046C404.153 101.224 404.153 101.402 404.153 101.586C404.509 101.586 404.864 101.586 405.231 101.586C405.231 101.764 405.231 101.943 405.231 102.126C405.587 102.126 405.942 102.126 406.309 102.126C406.309 102.305 406.309 102.483 406.309 102.667C406.487 102.667 406.665 102.667 406.848 102.667C406.848 102.845 406.848 103.023 406.848 103.207C407.026 103.207 407.204 103.207 407.387 103.207C407.387 103.385 407.387 103.564 407.387 103.747C407.565 103.747 407.743 103.747 407.926 103.747C407.926 104.104 407.926 104.461 407.926 104.828C408.104 104.828 408.282 104.828 408.465 104.828C408.465 105.006 408.465 105.185 408.465 105.369C408.643 105.369 408.821 105.369 409.004 105.369C409.004 105.903 409.004 106.438 409.004 106.99C409.182 106.99 409.36 106.99 409.543 106.99C409.543 108.238 409.543 109.486 409.543 110.772C404.562 110.772 399.582 110.772 394.451 110.772C394.451 111.485 394.451 112.199 394.451 112.933C394.629 112.933 394.807 112.933 394.99 112.933C394.99 113.29 394.99 113.647 394.99 114.014C395.168 114.014 395.346 114.014 395.529 114.014C395.529 114.192 395.529 114.371 395.529 114.554C395.707 114.554 395.885 114.554 396.068 114.554C396.068 114.733 396.068 114.911 396.068 115.095C396.246 115.095 396.424 115.095 396.607 115.095C396.607 115.273 396.607 115.451 396.607 115.635C396.785 115.635 396.963 115.635 397.146 115.635C397.146 115.814 397.146 115.992 397.146 116.176C397.502 116.176 397.857 116.176 398.224 116.176C398.224 116.354 398.224 116.532 398.224 116.716C398.58 116.716 398.935 116.716 399.302 116.716C399.302 116.894 399.302 117.073 399.302 117.256C400.725 117.256 402.148 117.256 403.614 117.256C403.614 117.078 403.614 116.9 403.614 116.716C403.97 116.716 404.325 116.716 404.692 116.716C404.692 116.538 404.692 116.359 404.692 116.176C405.048 116.176 405.403 116.176 405.77 116.176C405.77 115.997 405.77 115.819 405.77 115.635C405.948 115.635 406.126 115.635 406.309 115.635C406.309 115.457 406.309 115.279 406.309 115.095C406.487 115.095 406.665 115.095 406.848 115.095C406.848 114.917 406.848 114.738 406.848 114.554C407.026 114.554 407.204 114.554 407.387 114.554C407.387 114.733 407.387 114.911 407.387 115.095C407.565 115.095 407.743 115.095 407.926 115.095C407.926 115.273 407.926 115.451 407.926 115.635C408.104 115.635 408.282 115.635 408.465 115.635C408.465 115.992 408.465 116.348 408.465 116.716C408.287 116.716 408.109 116.716 407.926 116.716C407.926 116.894 407.926 117.073 407.926 117.256C407.748 117.256 407.57 117.256 407.387 117.256C407.387 117.435 407.387 117.613 407.387 117.797C407.209 117.797 407.031 117.797 406.848 117.797C406.848 117.975 406.848 118.153 406.848 118.337C406.492 118.337 406.136 118.337 405.77 118.337C405.77 118.515 405.77 118.694 405.77 118.877C405.236 118.877 404.703 118.877 404.153 118.877C404.153 119.056 404.153 119.234 404.153 119.418C402.374 119.418 400.595 119.418 398.763 119.418C398.763 119.239 398.763 119.061 398.763 118.877C398.229 118.877 397.696 118.877 397.146 118.877C397.146 118.699 397.146 118.521 397.146 118.337C396.79 118.337 396.434 118.337 396.068 118.337C396.068 118.159 396.068 117.98 396.068 117.797C395.89 117.797 395.712 117.797 395.529 117.797C395.529 117.618 395.529 117.44 395.529 117.256C395.173 117.256 394.817 117.256 394.451 117.256C394.451 116.9 394.451 116.543 394.451 116.176C394.273 116.176 394.095 116.176 393.912 116.176C393.912 115.997 393.912 115.819 393.912 115.635C393.734 115.635 393.556 115.635 393.373 115.635C393.373 115.457 393.373 115.279 393.373 115.095C393.195 115.095 393.017 115.095 392.834 115.095C392.834 114.56 392.834 114.025 392.834 113.474C392.656 113.474 392.478 113.474 392.295 113.474C392.295 112.761 392.295 112.047 392.295 111.312C392.117 111.312 391.939 111.312 391.756 111.312C391.756 110.421 391.756 109.529 391.756 108.611C391.934 108.611 392.112 108.611 392.295 108.611C392.295 107.897 392.295 107.184 392.295 106.449C392.473 106.449 392.651 106.449 392.834 106.449C392.834 106.093 392.834 105.736 392.834 105.369C393.012 105.369 393.19 105.369 393.373 105.369C393.373 105.012 393.373 104.655 393.373 104.288C393.551 104.288 393.729 104.288 393.912 104.288C393.912 104.11 393.912 103.931 393.912 103.747C394.09 103.747 394.268 103.747 394.451 103.747C394.451 103.569 394.451 103.391 394.451 103.207C394.629 103.207 394.807 103.207 394.99 103.207C394.99 103.029 394.99 102.85 394.99 102.667C395.168 102.667 395.346 102.667 395.529 102.667C395.529 102.488 395.529 102.31 395.529 102.126C395.707 102.126 395.885 102.126 396.068 102.126C396.068 101.948 396.068 101.77 396.068 101.586C396.424 101.586 396.779 101.586 397.146 101.586C397.146 101.408 397.146 101.229 397.146 101.046C397.857 101.046 398.569 101.046 399.302 101.046C399.302 100.867 399.302 100.689 399.302 100.505ZM399.302 102.667C399.302 102.845 399.302 103.023 399.302 103.207C398.768 103.207 398.235 103.207 397.685 103.207C397.685 103.385 397.685 103.564 397.685 103.747C397.507 103.747 397.329 103.747 397.146 103.747C397.146 103.926 397.146 104.104 397.146 104.288C396.968 104.288 396.79 104.288 396.607 104.288C396.607 104.466 396.607 104.644 396.607 104.828C396.429 104.828 396.251 104.828 396.068 104.828C396.068 105.006 396.068 105.185 396.068 105.369C395.89 105.369 395.712 105.369 395.529 105.369C395.529 105.547 395.529 105.725 395.529 105.909C395.351 105.909 395.173 105.909 394.99 105.909C394.99 106.266 394.99 106.622 394.99 106.99C394.812 106.99 394.634 106.99 394.451 106.99C394.451 107.525 394.451 108.059 394.451 108.611C398.72 108.611 402.989 108.611 407.387 108.611C407.387 108.432 407.387 108.254 407.387 108.07C407.209 108.07 407.031 108.07 406.848 108.07C406.848 107.535 406.848 107 406.848 106.449C406.67 106.449 406.492 106.449 406.309 106.449C406.309 106.093 406.309 105.736 406.309 105.369C406.131 105.369 405.953 105.369 405.77 105.369C405.77 105.19 405.77 105.012 405.77 104.828C405.592 104.828 405.414 104.828 405.231 104.828C405.231 104.65 405.231 104.472 405.231 104.288C405.053 104.288 404.875 104.288 404.692 104.288C404.692 104.11 404.692 103.931 404.692 103.747C404.336 103.747 403.98 103.747 403.614 103.747C403.614 103.569 403.614 103.391 403.614 103.207C403.08 103.207 402.547 103.207 401.997 103.207C401.997 103.029 401.997 102.85 401.997 102.667C401.108 102.667 400.218 102.667 399.302 102.667Z" fill="#E8E8E8"/>
<path d="M564.236 100.505C565.303 100.505 566.37 100.505 567.47 100.505C567.47 100.684 567.47 100.862 567.47 101.046C568.181 101.046 568.893 101.046 569.626 101.046C569.626 101.224 569.626 101.402 569.626 101.586C569.982 101.586 570.337 101.586 570.704 101.586C570.704 101.764 570.704 101.943 570.704 102.126C570.882 102.126 571.06 102.126 571.243 102.126C571.243 102.305 571.243 102.483 571.243 102.667C571.421 102.667 571.599 102.667 571.782 102.667C571.782 102.845 571.782 103.023 571.782 103.207C571.96 103.207 572.138 103.207 572.321 103.207C572.321 103.385 572.321 103.564 572.321 103.747C572.499 103.747 572.677 103.747 572.86 103.747C572.86 103.926 572.86 104.104 572.86 104.288C573.038 104.288 573.216 104.288 573.399 104.288C573.399 104.644 573.399 105.001 573.399 105.369C573.577 105.369 573.755 105.369 573.938 105.369C573.938 105.903 573.938 106.438 573.938 106.99C574.116 106.99 574.294 106.99 574.477 106.99C574.477 108.238 574.477 109.486 574.477 110.772C569.497 110.772 564.516 110.772 559.385 110.772C559.385 111.307 559.385 111.842 559.385 112.393C559.563 112.393 559.741 112.393 559.924 112.393C559.924 112.75 559.924 113.106 559.924 113.474C560.102 113.474 560.28 113.474 560.463 113.474C560.463 113.83 560.463 114.187 560.463 114.554C560.641 114.554 560.819 114.554 561.002 114.554C561.002 114.733 561.002 114.911 561.002 115.095C561.18 115.095 561.358 115.095 561.541 115.095C561.541 115.273 561.541 115.451 561.541 115.635C561.719 115.635 561.897 115.635 562.08 115.635C562.08 115.814 562.08 115.992 562.08 116.176C562.436 116.176 562.791 116.176 563.158 116.176C563.158 116.354 563.158 116.532 563.158 116.716C563.514 116.716 563.869 116.716 564.236 116.716C564.236 116.894 564.236 117.073 564.236 117.256C565.659 117.256 567.082 117.256 568.548 117.256C568.548 117.078 568.548 116.9 568.548 116.716C569.082 116.716 569.615 116.716 570.165 116.716C570.165 116.538 570.165 116.359 570.165 116.176C570.343 116.176 570.521 116.176 570.704 116.176C570.704 115.997 570.704 115.819 570.704 115.635C570.882 115.635 571.06 115.635 571.243 115.635C571.243 115.457 571.243 115.279 571.243 115.095C571.421 115.095 571.599 115.095 571.782 115.095C571.782 114.917 571.782 114.738 571.782 114.554C571.96 114.554 572.138 114.554 572.321 114.554C572.321 114.733 572.321 114.911 572.321 115.095C572.499 115.095 572.677 115.095 572.86 115.095C572.86 115.273 572.86 115.451 572.86 115.635C573.038 115.635 573.216 115.635 573.399 115.635C573.399 115.992 573.399 116.348 573.399 116.716C573.221 116.716 573.043 116.716 572.86 116.716C572.86 116.894 572.86 117.073 572.86 117.256C572.682 117.256 572.504 117.256 572.321 117.256C572.321 117.435 572.321 117.613 572.321 117.797C572.143 117.797 571.965 117.797 571.782 117.797C571.782 117.975 571.782 118.153 571.782 118.337C571.426 118.337 571.071 118.337 570.704 118.337C570.704 118.515 570.704 118.694 570.704 118.877C570.17 118.877 569.637 118.877 569.087 118.877C569.087 119.056 569.087 119.234 569.087 119.418C567.308 119.418 565.53 119.418 563.697 119.418C563.697 119.239 563.697 119.061 563.697 118.877C563.163 118.877 562.63 118.877 562.08 118.877C562.08 118.699 562.08 118.521 562.08 118.337C561.724 118.337 561.369 118.337 561.002 118.337C561.002 118.159 561.002 117.98 561.002 117.797C560.824 117.797 560.646 117.797 560.463 117.797C560.463 117.618 560.463 117.44 560.463 117.256C560.285 117.256 560.107 117.256 559.924 117.256C559.924 117.078 559.924 116.9 559.924 116.716C559.746 116.716 559.568 116.716 559.385 116.716C559.385 116.538 559.385 116.359 559.385 116.176C559.207 116.176 559.029 116.176 558.846 116.176C558.846 115.997 558.846 115.819 558.846 115.635C558.668 115.635 558.49 115.635 558.307 115.635C558.307 115.279 558.307 114.922 558.307 114.554C558.129 114.554 557.951 114.554 557.768 114.554C557.768 114.198 557.768 113.841 557.768 113.474C557.59 113.474 557.412 113.474 557.229 113.474C557.229 111.156 557.229 108.838 557.229 106.449C557.407 106.449 557.585 106.449 557.768 106.449C557.768 106.093 557.768 105.736 557.768 105.369C557.946 105.369 558.124 105.369 558.307 105.369C558.307 105.012 558.307 104.655 558.307 104.288C558.485 104.288 558.663 104.288 558.846 104.288C558.846 104.11 558.846 103.931 558.846 103.747C559.024 103.747 559.202 103.747 559.385 103.747C559.385 103.569 559.385 103.391 559.385 103.207C559.563 103.207 559.741 103.207 559.924 103.207C559.924 103.029 559.924 102.85 559.924 102.667C560.102 102.667 560.28 102.667 560.463 102.667C560.463 102.488 560.463 102.31 560.463 102.126C560.641 102.126 560.819 102.126 561.002 102.126C561.002 101.948 561.002 101.77 561.002 101.586C561.358 101.586 561.713 101.586 562.08 101.586C562.08 101.408 562.08 101.229 562.08 101.046C562.791 101.046 563.503 101.046 564.236 101.046C564.236 100.867 564.236 100.689 564.236 100.505ZM564.236 102.667C564.236 102.845 564.236 103.023 564.236 103.207C563.88 103.207 563.525 103.207 563.158 103.207C563.158 103.385 563.158 103.564 563.158 103.747C562.802 103.747 562.447 103.747 562.08 103.747C562.08 103.926 562.08 104.104 562.08 104.288C561.902 104.288 561.724 104.288 561.541 104.288C561.541 104.466 561.541 104.644 561.541 104.828C561.363 104.828 561.185 104.828 561.002 104.828C561.002 105.006 561.002 105.185 561.002 105.369C560.824 105.369 560.646 105.369 560.463 105.369C560.463 105.725 560.463 106.082 560.463 106.449C560.285 106.449 560.107 106.449 559.924 106.449C559.924 106.806 559.924 107.162 559.924 107.53C559.746 107.53 559.568 107.53 559.385 107.53C559.385 107.887 559.385 108.243 559.385 108.611C563.654 108.611 567.923 108.611 572.321 108.611C572.321 108.254 572.321 107.897 572.321 107.53C572.143 107.53 571.965 107.53 571.782 107.53C571.782 107.173 571.782 106.817 571.782 106.449C571.604 106.449 571.426 106.449 571.243 106.449C571.243 106.093 571.243 105.736 571.243 105.369C571.065 105.369 570.887 105.369 570.704 105.369C570.704 105.19 570.704 105.012 570.704 104.828C570.526 104.828 570.348 104.828 570.165 104.828C570.165 104.65 570.165 104.472 570.165 104.288C569.987 104.288 569.809 104.288 569.626 104.288C569.626 104.11 569.626 103.931 569.626 103.747C569.27 103.747 568.915 103.747 568.548 103.747C568.548 103.569 568.548 103.391 568.548 103.207C568.192 103.207 567.837 103.207 567.47 103.207C567.47 103.029 567.47 102.85 567.47 102.667C566.403 102.667 565.336 102.667 564.236 102.667Z" fill="var(--accent)"/>
<path d="M345.402 93.4807C346.113 93.4807 346.825 93.4807 347.558 93.4807C347.558 96.8687 347.558 100.257 347.558 103.747C347.736 103.747 347.914 103.747 348.097 103.747C348.097 103.569 348.097 103.391 348.097 103.207C348.275 103.207 348.453 103.207 348.636 103.207C348.636 103.029 348.636 102.85 348.636 102.667C348.814 102.667 348.992 102.667 349.175 102.667C349.175 102.488 349.175 102.31 349.175 102.126C349.353 102.126 349.531 102.126 349.714 102.126C349.714 101.948 349.714 101.77 349.714 101.586C350.07 101.586 350.425 101.586 350.792 101.586C350.792 101.408 350.792 101.229 350.792 101.046C351.503 101.046 352.215 101.046 352.948 101.046C352.948 100.867 352.948 100.689 352.948 100.505C354.015 100.505 355.082 100.505 356.182 100.505C356.182 100.684 356.182 100.862 356.182 101.046C356.893 101.046 357.605 101.046 358.338 101.046C358.338 101.224 358.338 101.402 358.338 101.586C358.516 101.586 358.694 101.586 358.877 101.586C358.877 101.764 358.877 101.943 358.877 102.126C359.233 102.126 359.588 102.126 359.955 102.126C359.955 102.305 359.955 102.483 359.955 102.667C360.133 102.667 360.311 102.667 360.494 102.667C360.494 102.845 360.494 103.023 360.494 103.207C360.672 103.207 360.85 103.207 361.033 103.207C361.033 103.564 361.033 103.92 361.033 104.288C361.211 104.288 361.389 104.288 361.572 104.288C361.572 104.823 361.572 105.358 361.572 105.909C361.75 105.909 361.928 105.909 362.111 105.909C362.111 110.367 362.111 114.825 362.111 119.418C361.399 119.418 360.688 119.418 359.955 119.418C359.955 115.495 359.955 111.572 359.955 107.53C359.777 107.53 359.599 107.53 359.416 107.53C359.416 106.817 359.416 106.103 359.416 105.368C359.238 105.368 359.06 105.368 358.877 105.368C358.877 105.19 358.877 105.012 358.877 104.828C358.699 104.828 358.521 104.828 358.338 104.828C358.338 104.65 358.338 104.471 358.338 104.288C358.16 104.288 357.982 104.288 357.799 104.288C357.799 104.109 357.799 103.931 357.799 103.747C357.621 103.747 357.443 103.747 357.26 103.747C357.26 103.569 357.26 103.391 357.26 103.207C356.726 103.207 356.193 103.207 355.643 103.207C355.643 103.029 355.643 102.85 355.643 102.667C354.754 102.667 353.864 102.667 352.948 102.667C352.948 102.845 352.948 103.023 352.948 103.207C352.414 103.207 351.881 103.207 351.331 103.207C351.331 103.385 351.331 103.564 351.331 103.747C350.975 103.747 350.619 103.747 350.253 103.747C350.253 103.926 350.253 104.104 350.253 104.288C350.075 104.288 349.897 104.288 349.714 104.288C349.714 104.466 349.714 104.644 349.714 104.828C349.536 104.828 349.358 104.828 349.175 104.828C349.175 105.006 349.175 105.185 349.175 105.368C348.997 105.368 348.819 105.368 348.636 105.368C348.636 105.725 348.636 106.082 348.636 106.449C348.458 106.449 348.28 106.449 348.097 106.449C348.097 107.341 348.097 108.232 348.097 109.151C347.919 109.151 347.741 109.151 347.558 109.151C347.558 112.539 347.558 115.927 347.558 119.418C346.846 119.418 346.135 119.418 345.402 119.418C345.402 110.858 345.402 102.299 345.402 93.4807Z" fill="var(--accent)"/>
<path d="M520.038 100.505C520.928 100.505 521.817 100.505 522.733 100.505C522.733 100.684 522.733 100.862 522.733 101.046C523.445 101.046 524.156 101.046 524.889 101.046C524.889 101.224 524.889 101.402 524.889 101.586C525.245 101.586 525.601 101.586 525.967 101.586C525.967 101.764 525.967 101.943 525.967 102.126C526.145 102.126 526.323 102.126 526.506 102.126C526.506 102.305 526.506 102.483 526.506 102.667C526.684 102.667 526.862 102.667 527.045 102.667C527.045 102.845 527.045 103.023 527.045 103.207C527.223 103.207 527.401 103.207 527.584 103.207C527.584 103.385 527.584 103.564 527.584 103.747C527.762 103.747 527.94 103.747 528.123 103.747C528.123 104.104 528.123 104.461 528.123 104.828C528.301 104.828 528.479 104.828 528.662 104.828C528.662 105.541 528.662 106.255 528.662 106.99C528.84 106.99 529.018 106.99 529.201 106.99C529.201 111.091 529.201 115.192 529.201 119.418C528.312 119.418 527.422 119.418 526.506 119.418C526.506 114.96 526.506 110.502 526.506 105.909C526.328 105.909 526.15 105.909 525.967 105.909C525.967 105.552 525.967 105.196 525.967 104.828C525.789 104.828 525.611 104.828 525.428 104.828C525.428 104.65 525.428 104.472 525.428 104.288C525.25 104.288 525.072 104.288 524.889 104.288C524.889 104.11 524.889 103.931 524.889 103.747C524.533 103.747 524.178 103.747 523.811 103.747C523.811 103.569 523.811 103.391 523.811 103.207C523.455 103.207 523.1 103.207 522.733 103.207C522.733 103.029 522.733 102.85 522.733 102.667C521.844 102.667 520.954 102.667 520.038 102.667C520.038 102.845 520.038 103.023 520.038 103.207C519.505 103.207 518.971 103.207 518.421 103.207C518.421 103.385 518.421 103.564 518.421 103.747C518.065 103.747 517.71 103.747 517.343 103.747C517.343 103.926 517.343 104.104 517.343 104.288C517.165 104.288 516.987 104.288 516.804 104.288C516.804 104.466 516.804 104.644 516.804 104.828C516.626 104.828 516.448 104.828 516.265 104.828C516.265 105.006 516.265 105.185 516.265 105.369C516.087 105.369 515.909 105.369 515.726 105.369C515.726 105.725 515.726 106.082 515.726 106.449C515.548 106.449 515.37 106.449 515.187 106.449C515.187 106.984 515.187 107.519 515.187 108.07C515.009 108.07 514.831 108.07 514.648 108.07C514.648 111.815 514.648 115.56 514.648 119.418C513.937 119.418 513.225 119.418 512.492 119.418C512.492 113.355 512.492 107.292 512.492 101.046C513.204 101.046 513.915 101.046 514.648 101.046C514.648 101.937 514.648 102.829 514.648 103.747C514.826 103.747 515.004 103.747 515.187 103.747C515.187 103.391 515.187 103.034 515.187 102.667C515.365 102.667 515.543 102.667 515.726 102.667C515.726 102.488 515.726 102.31 515.726 102.126C516.082 102.126 516.438 102.126 516.804 102.126C516.804 101.948 516.804 101.77 516.804 101.586C517.16 101.586 517.516 101.586 517.882 101.586C517.882 101.408 517.882 101.229 517.882 101.046C518.594 101.046 519.305 101.046 520.038 101.046C520.038 100.867 520.038 100.689 520.038 100.505Z" fill="var(--accent)"/>
<path d="M376.125 94.5615C379.683 94.5615 383.24 94.5615 386.905 94.5615C386.905 101.516 386.905 108.47 386.905 115.635C386.727 115.635 386.549 115.635 386.366 115.635C386.366 115.992 386.366 116.348 386.366 116.716C386.188 116.716 386.01 116.716 385.827 116.716C385.827 116.894 385.827 117.073 385.827 117.256C385.649 117.256 385.471 117.256 385.288 117.256C385.288 117.435 385.288 117.613 385.288 117.797C385.11 117.797 384.932 117.797 384.749 117.797C384.749 117.975 384.749 118.153 384.749 118.337C384.571 118.337 384.393 118.337 384.21 118.337C384.21 118.515 384.21 118.694 384.21 118.877C383.854 118.877 383.499 118.877 383.132 118.877C383.132 119.056 383.132 119.234 383.132 119.418C381.353 119.418 379.575 119.418 377.742 119.418C377.742 119.239 377.742 119.061 377.742 118.877C377.386 118.877 377.031 118.877 376.664 118.877C376.664 118.699 376.664 118.521 376.664 118.337C376.308 118.337 375.953 118.337 375.586 118.337C375.586 118.159 375.586 117.98 375.586 117.797C375.408 117.797 375.23 117.797 375.047 117.797C375.047 117.618 375.047 117.44 375.047 117.256C374.869 117.256 374.691 117.256 374.508 117.256C374.508 117.078 374.508 116.9 374.508 116.716C374.33 116.716 374.152 116.716 373.969 116.716C373.969 116.538 373.969 116.359 373.969 116.176C373.791 116.176 373.613 116.176 373.43 116.176C373.43 115.997 373.43 115.819 373.43 115.635C373.608 115.635 373.786 115.635 373.969 115.635C373.969 115.457 373.969 115.279 373.969 115.095C374.147 115.095 374.325 115.095 374.508 115.095C374.508 114.917 374.508 114.738 374.508 114.555C374.864 114.555 375.22 114.555 375.586 114.555C375.586 114.733 375.586 114.911 375.586 115.095C375.764 115.095 375.942 115.095 376.125 115.095C376.125 115.273 376.125 115.451 376.125 115.635C376.303 115.635 376.481 115.635 376.664 115.635C376.664 115.814 376.664 115.992 376.664 116.176C376.842 116.176 377.02 116.176 377.203 116.176C377.203 116.354 377.203 116.532 377.203 116.716C377.737 116.716 378.27 116.716 378.82 116.716C378.82 116.894 378.82 117.073 378.82 117.256C379.887 117.256 380.955 117.256 382.054 117.256C382.054 117.078 382.054 116.9 382.054 116.716C382.41 116.716 382.766 116.716 383.132 116.716C383.132 116.538 383.132 116.359 383.132 116.176C383.31 116.176 383.488 116.176 383.671 116.176C383.671 115.997 383.671 115.819 383.671 115.635C383.849 115.635 384.027 115.635 384.21 115.635C384.21 115.1 384.21 114.565 384.21 114.014C384.388 114.014 384.566 114.014 384.749 114.014C384.749 108.308 384.749 102.602 384.749 96.7229C381.903 96.7229 379.057 96.7229 376.125 96.7229C376.125 96.0097 376.125 95.2964 376.125 94.5615Z" fill="var(--accent)"/>
<path d="M331.927 96.7229C332.816 96.7229 333.706 96.7229 334.622 96.7229C334.622 98.1494 334.622 99.576 334.622 101.046C336.401 101.046 338.179 101.046 340.012 101.046C340.012 101.581 340.012 102.116 340.012 102.667C338.233 102.667 336.454 102.667 334.622 102.667C334.622 107.125 334.622 111.583 334.622 116.176C334.8 116.176 334.978 116.176 335.161 116.176C335.161 116.354 335.161 116.532 335.161 116.716C335.339 116.716 335.517 116.716 335.7 116.716C335.7 116.894 335.7 117.073 335.7 117.256C336.767 117.256 337.834 117.256 338.934 117.256C338.934 117.078 338.934 116.9 338.934 116.716C339.29 116.716 339.645 116.716 340.012 116.716C340.012 116.538 340.012 116.359 340.012 116.176C340.19 116.176 340.368 116.176 340.551 116.176C340.551 116.354 340.551 116.532 340.551 116.716C340.729 116.716 340.907 116.716 341.09 116.716C341.09 117.251 341.09 117.786 341.09 118.337C340.912 118.337 340.734 118.337 340.551 118.337C340.551 118.515 340.551 118.694 340.551 118.877C340.195 118.877 339.839 118.877 339.473 118.877C339.473 119.056 339.473 119.234 339.473 119.418C338.05 119.418 336.627 119.418 335.161 119.418C335.161 119.239 335.161 119.061 335.161 118.877C334.805 118.877 334.449 118.877 334.083 118.877C334.083 118.699 334.083 118.521 334.083 118.337C333.905 118.337 333.727 118.337 333.544 118.337C333.544 118.159 333.544 117.98 333.544 117.797C333.366 117.797 333.188 117.797 333.005 117.797C333.005 117.618 333.005 117.44 333.005 117.256C332.827 117.256 332.649 117.256 332.466 117.256C332.466 116.721 332.466 116.186 332.466 115.635C332.288 115.635 332.11 115.635 331.927 115.635C331.927 111.356 331.927 107.076 331.927 102.667C330.86 102.667 329.792 102.667 328.693 102.667C328.693 102.132 328.693 101.597 328.693 101.046C329.76 101.046 330.827 101.046 331.927 101.046C331.927 99.6192 331.927 98.1927 331.927 96.7229Z" fill="var(--accent)"/>
<path d="M418.706 92.9404C419.418 92.9404 420.129 92.9404 420.862 92.9404C420.862 93.1187 420.862 93.2971 420.862 93.4808C421.574 93.4808 422.285 93.4808 423.018 93.4808C423.018 93.6591 423.018 93.8374 423.018 94.0211C423.196 94.0211 423.374 94.0211 423.557 94.0211C423.557 94.5561 423.557 95.091 423.557 95.6422C423.379 95.6422 423.201 95.6422 423.018 95.6422C423.018 95.8205 423.018 95.9988 423.018 96.1825C422.662 96.1825 422.307 96.1825 421.94 96.1825C421.94 96.0042 421.94 95.8259 421.94 95.6422C421.584 95.6422 421.229 95.6422 420.862 95.6422C420.862 95.4639 420.862 95.2856 420.862 95.1018C420.151 95.1018 419.439 95.1018 418.706 95.1018C418.706 95.2801 418.706 95.4585 418.706 95.6422C418.528 95.6422 418.35 95.6422 418.167 95.6422C418.167 95.8205 418.167 95.9988 418.167 96.1825C417.989 96.1825 417.811 96.1825 417.628 96.1825C417.628 96.3609 417.628 96.5392 417.628 96.7229C417.45 96.7229 417.272 96.7229 417.089 96.7229C417.089 98.1494 417.089 99.5759 417.089 101.046C418.868 101.046 420.647 101.046 422.479 101.046C422.479 101.581 422.479 102.116 422.479 102.667C420.7 102.667 418.922 102.667 417.089 102.667C417.089 108.195 417.089 113.722 417.089 119.418C416.378 119.418 415.666 119.418 414.933 119.418C414.933 113.89 414.933 108.362 414.933 102.667C413.688 102.667 412.443 102.667 411.16 102.667C411.16 102.132 411.16 101.597 411.16 101.046C412.405 101.046 413.65 101.046 414.933 101.046C414.933 99.2625 414.933 97.4794 414.933 95.6422C415.111 95.6422 415.289 95.6422 415.472 95.6422C415.472 95.2856 415.472 94.9289 415.472 94.5615C415.65 94.5615 415.828 94.5615 416.011 94.5615C416.011 94.3832 416.011 94.2049 416.011 94.0211C416.367 94.0211 416.723 94.0211 417.089 94.0211C417.089 93.8428 417.089 93.6645 417.089 93.4808C417.623 93.4808 418.156 93.4808 418.706 93.4808C418.706 93.3025 418.706 93.1241 418.706 92.9404Z" fill="var(--accent)"/>
<path d="M430.564 92.9404C431.098 92.9404 431.631 92.9404 432.181 92.9404C432.181 93.1187 432.181 93.2971 432.181 93.4808C432.893 93.4808 433.604 93.4808 434.337 93.4808C434.337 93.6591 434.337 93.8374 434.337 94.0211C434.515 94.0211 434.693 94.0211 434.876 94.0211C434.876 94.5561 434.876 95.091 434.876 95.6422C434.698 95.6422 434.52 95.6422 434.337 95.6422C434.337 95.8205 434.337 95.9988 434.337 96.1825C433.981 96.1825 433.626 96.1825 433.259 96.1825C433.259 96.0042 433.259 95.8259 433.259 95.6422C432.903 95.6422 432.548 95.6422 432.181 95.6422C432.181 95.4639 432.181 95.2856 432.181 95.1018C431.47 95.1018 430.758 95.1018 430.025 95.1018C430.025 95.2801 430.025 95.4585 430.025 95.6422C429.847 95.6422 429.669 95.6422 429.486 95.6422C429.486 95.8205 429.486 95.9988 429.486 96.1825C429.308 96.1825 429.13 96.1825 428.947 96.1825C428.947 96.3609 428.947 96.5392 428.947 96.7229C428.769 96.7229 428.591 96.7229 428.408 96.7229C428.408 98.1494 428.408 99.5759 428.408 101.046C430.187 101.046 431.965 101.046 433.798 101.046C433.798 101.581 433.798 102.116 433.798 102.667C432.019 102.667 430.241 102.667 428.408 102.667C428.408 108.195 428.408 113.722 428.408 119.418C427.697 119.418 426.985 119.418 426.252 119.418C426.252 113.89 426.252 108.362 426.252 102.667C425.185 102.667 424.118 102.667 423.018 102.667C423.018 102.132 423.018 101.597 423.018 101.046C424.085 101.046 425.153 101.046 426.252 101.046C426.252 99.2625 426.252 97.4794 426.252 95.6422C426.43 95.6422 426.608 95.6422 426.791 95.6422C426.791 95.4639 426.791 95.2856 426.791 95.1018C426.969 95.1018 427.147 95.1018 427.33 95.1018C427.33 94.7452 427.33 94.3886 427.33 94.0211C427.686 94.0211 428.042 94.0211 428.408 94.0211C428.408 93.8428 428.408 93.6645 428.408 93.4808C429.12 93.4808 429.831 93.4808 430.564 93.4808C430.564 93.3025 430.564 93.1241 430.564 92.9404Z" fill="#E8E8E8"/>
<path d="M586.874 100.505C587.408 100.505 587.941 100.505 588.491 100.505C588.491 101.219 588.491 101.932 588.491 102.667C587.958 102.667 587.424 102.667 586.874 102.667C586.874 102.845 586.874 103.023 586.874 103.207C586.341 103.207 585.807 103.207 585.257 103.207C585.257 103.385 585.257 103.564 585.257 103.747C584.901 103.747 584.546 103.747 584.179 103.747C584.179 103.926 584.179 104.104 584.179 104.288C584.001 104.288 583.823 104.288 583.64 104.288C583.64 104.466 583.64 104.644 583.64 104.828C583.462 104.828 583.284 104.828 583.101 104.828C583.101 105.006 583.101 105.185 583.101 105.369C582.923 105.369 582.745 105.369 582.562 105.369C582.562 105.725 582.562 106.082 582.562 106.449C582.384 106.449 582.206 106.449 582.023 106.449C582.023 106.984 582.023 107.519 582.023 108.07C581.845 108.07 581.667 108.07 581.484 108.07C581.484 111.815 581.484 115.56 581.484 119.418C580.773 119.418 580.061 119.418 579.328 119.418C579.328 113.355 579.328 107.292 579.328 101.046C580.04 101.046 580.751 101.046 581.484 101.046C581.484 101.759 581.484 102.472 581.484 103.207C581.662 103.207 581.84 103.207 582.023 103.207C582.023 103.029 582.023 102.85 582.023 102.667C582.201 102.667 582.379 102.667 582.562 102.667C582.562 102.488 582.562 102.31 582.562 102.126C582.918 102.126 583.274 102.126 583.64 102.126C583.64 101.948 583.64 101.77 583.64 101.586C583.996 101.586 584.352 101.586 584.718 101.586C584.718 101.408 584.718 101.229 584.718 101.046C585.43 101.046 586.141 101.046 586.874 101.046C586.874 100.867 586.874 100.689 586.874 100.505Z" fill="var(--accent)"/>
<path d="M497.4 100.505C497.934 100.505 498.467 100.505 499.017 100.505C499.017 101.219 499.017 101.932 499.017 102.667C498.661 102.667 498.306 102.667 497.939 102.667C497.939 102.845 497.939 103.023 497.939 103.207C497.228 103.207 496.516 103.207 495.783 103.207C495.783 103.385 495.783 103.564 495.783 103.747C495.427 103.747 495.072 103.747 494.705 103.747C494.705 103.926 494.705 104.104 494.705 104.288C494.527 104.288 494.349 104.288 494.166 104.288C494.166 104.466 494.166 104.644 494.166 104.828C493.988 104.828 493.81 104.828 493.627 104.828C493.627 105.185 493.627 105.541 493.627 105.909C493.449 105.909 493.271 105.909 493.088 105.909C493.088 106.266 493.088 106.622 493.088 106.99C492.91 106.99 492.732 106.99 492.549 106.99C492.549 111.091 492.549 115.192 492.549 119.418C491.838 119.418 491.126 119.418 490.393 119.418C490.393 113.355 490.393 107.292 490.393 101.046C491.105 101.046 491.816 101.046 492.549 101.046C492.549 101.759 492.549 102.472 492.549 103.207C492.727 103.207 492.905 103.207 493.088 103.207C493.088 103.029 493.088 102.85 493.088 102.667C493.266 102.667 493.444 102.667 493.627 102.667C493.627 102.488 493.627 102.31 493.627 102.126C493.805 102.126 493.983 102.126 494.166 102.126C494.166 101.948 494.166 101.77 494.166 101.586C494.522 101.586 494.878 101.586 495.244 101.586C495.244 101.408 495.244 101.229 495.244 101.046C495.956 101.046 496.667 101.046 497.4 101.046C497.4 100.867 497.4 100.689 497.4 100.505Z" fill="var(--accent)"/>
<path d="M503.329 101.046C504.041 101.046 504.752 101.046 505.485 101.046C505.485 107.108 505.485 113.171 505.485 119.418C504.774 119.418 504.062 119.418 503.329 119.418C503.329 113.355 503.329 107.292 503.329 101.046Z" fill="#E7E7E7"/>
<path d="M322.764 101.046C323.476 101.046 324.187 101.046 324.92 101.046C324.92 107.108 324.92 113.171 324.92 119.418C324.209 119.418 323.497 119.418 322.764 119.418C322.764 113.355 322.764 107.292 322.764 101.046Z" fill="#E8E8E8"/>
<path d="M323.842 93.4807C324.02 93.4807 324.198 93.4807 324.381 93.4807C324.381 93.659 324.381 93.8373 324.381 94.0211C324.737 94.0211 325.093 94.0211 325.459 94.0211C325.459 94.9126 325.459 95.8042 325.459 96.7228C325.103 96.7228 324.748 96.7228 324.381 96.7228C324.381 96.9011 324.381 97.0794 324.381 97.2632C324.025 97.2632 323.67 97.2632 323.303 97.2632C323.303 97.0849 323.303 96.9065 323.303 96.7228C323.125 96.7228 322.947 96.7228 322.764 96.7228C322.764 96.5445 322.764 96.3662 322.764 96.1825C322.586 96.1825 322.408 96.1825 322.225 96.1825C322.225 95.6475 322.225 95.1126 322.225 94.5614C322.403 94.5614 322.581 94.5614 322.764 94.5614C322.764 94.3831 322.764 94.2048 322.764 94.0211C323.12 94.0211 323.476 94.0211 323.842 94.0211C323.842 93.8427 323.842 93.6644 323.842 93.4807Z" fill="var(--accent)"/>
<path d="M504.407 93.4807C504.585 93.4807 504.763 93.4807 504.946 93.4807C504.946 93.659 504.946 93.8373 504.946 94.0211C505.302 94.0211 505.658 94.0211 506.024 94.0211C506.024 94.9126 506.024 95.8042 506.024 96.7228C505.668 96.7228 505.313 96.7228 504.946 96.7228C504.946 96.9011 504.946 97.0794 504.946 97.2632C504.768 97.2632 504.59 97.2632 504.407 97.2632C504.407 97.0849 504.407 96.9065 504.407 96.7228C504.051 96.7228 503.696 96.7228 503.329 96.7228C503.329 96.5445 503.329 96.3662 503.329 96.1825C503.151 96.1825 502.973 96.1825 502.79 96.1825C502.79 95.8258 502.79 95.4692 502.79 95.1018C502.968 95.1018 503.146 95.1018 503.329 95.1018C503.329 94.7451 503.329 94.3885 503.329 94.0211C503.685 94.0211 504.041 94.0211 504.407 94.0211C504.407 93.8427 504.407 93.6644 504.407 93.4807Z" fill="var(--accent)"/>
</svg>
