<svg width="712" height="159" viewBox="0 0 712 159" fill="none" xmlns="http://www.w3.org/2000/svg">
<g clip-path="url(#clip0_973_4321)">
<path d="M533.855 40.5508L533.141 61.3598C508.705 59.7591 501.749 65.984 501.749 86.4373V89.1051H480.701V41.7958H501.749V55.3127C507.991 44.2858 516.553 39.3058 533.855 40.5508ZM34.9601 125.387H56.0075V44.6415H34.9601V125.387ZM138.77 40.7287C124.144 40.7287 115.226 47.3093 110.41 54.4235V9.95985H0V29.5238H90.7892V89.2829H110.766C110.766 72.2089 120.755 60.1148 132.884 60.1148C143.408 60.1148 148.045 65.2726 148.045 83.7694V125.743H169.093V75.9438C169.093 52.2892 156.964 40.7287 138.77 40.7287ZM221.176 109.38C208.512 109.38 200.129 101.733 198.88 89.1051H179.26C181.222 111.337 195.848 127.166 221.176 127.166C240.796 127.166 251.855 118.451 257.563 105.112L239.726 97.2864C237.051 105.29 232.056 109.38 221.176 109.38ZM220.463 41.0844C212.971 40.9065 205.658 42.6851 198.88 46.0643L208.869 60.2927C212.614 58.3363 216.717 57.447 220.998 57.447C232.77 57.447 238.656 65.0947 239.548 75.0546H219.392V88.9272H259.347C259.703 86.793 259.703 84.8366 259.703 82.8802C259.882 52.6449 239.726 41.0844 220.463 41.0844ZM427.904 109.38C415.24 109.38 406.857 101.733 405.608 89.1051H385.988C387.95 111.337 402.576 127.166 427.904 127.166C447.525 127.166 458.584 118.451 464.291 105.112L446.455 97.2864C443.601 105.29 438.606 109.38 427.904 109.38ZM427.191 41.0844C419.699 40.9065 412.386 42.6851 405.608 46.0643L415.597 60.2927C419.343 58.3363 423.445 57.447 427.726 57.447C439.498 57.447 445.563 65.0947 446.276 75.0546H426.299V88.9272H466.253C466.61 86.793 466.61 84.8366 466.61 82.8802C466.788 52.6449 446.633 41.0844 427.191 41.0844ZM672.803 109.38C660.139 109.38 651.756 101.733 650.507 89.1051H630.887C632.849 111.337 647.475 127.166 672.803 127.166C692.424 127.166 703.482 118.451 709.19 105.112L691.354 97.2864C688.5 105.29 683.684 109.38 672.803 109.38ZM671.733 41.0844C664.242 40.9065 656.928 42.6851 650.151 46.0643L660.139 60.2927C663.885 58.3363 667.987 57.447 672.268 57.447C684.04 57.447 689.927 65.0947 690.818 75.0546H670.484V88.9272H710.439C710.796 86.793 710.796 84.8366 710.796 82.8802C711.331 52.6449 691.175 41.0844 671.733 41.0844ZM270.584 0L308.22 89.1051H331.051L302.333 18.319H339.434V0.177854L270.584 0ZM382.421 0.177854L339.255 109.203L332.834 125.565H354.773L406.679 0.177854H382.421ZM575.058 123.431C583.976 123.431 591.468 120.941 596.64 116.673L588.257 103.511C585.581 104.578 582.727 105.112 579.695 105.112C568.28 105.112 561.68 98.3535 559.361 89.2829H538.849C541.703 108.491 555.616 123.431 575.058 123.431ZM600.921 53.5342C596.105 46.0643 586.473 40.5508 573.096 40.5508C559.896 40.373 547.767 47.4871 541.346 59.0477L558.826 70.2525C562.037 63.494 568.28 59.0477 577.912 59.0477C591.646 59.0477 600.743 69.5411 600.743 82.1688C600.743 84.4809 600.386 86.9708 599.851 89.1051H621.79V41.9736H600.743L600.921 53.5342ZM580.587 142.461C567.031 142.461 562.037 135.881 560.967 128.233H540.989C541.346 142.817 551.156 158.824 580.944 158.824C601.099 158.824 614.12 148.864 619.65 133.747L600.743 127.166C598.245 136.948 590.932 142.461 580.587 142.461Z" fill="var(--accent)"/>
</g>
<defs>
<clipPath id="clip0_973_4321">
<rect width="711.152" height="158.824" fill="var(--accent)"/>
</clipPath>
</defs>
</svg>
