<svg width="710" height="210" viewBox="0 0 710 210" fill="none" xmlns="http://www.w3.org/2000/svg">
<g clip-path="url(#clip0_973_4332)">
<path d="M99.8242 27.5V0.625H167.829V153.75H99.8242V127.5H139.754V27.5H99.8242Z" fill="#2DAAE9"/>
<path d="M68.0053 27.5V0.625H0V153.75H34.3146L68.0053 210V127.5H28.0756V27.5H68.0053Z" fill="#E43F64"/>
<path d="M362.487 8.125L363.111 6.25L369.35 0H335.659L286.995 57.5L238.954 0H204.64L210.879 6.875L270.149 77.5L210.879 148.75L204.64 155H238.954L286.995 97.5L335.659 155H369.35L363.735 148.75L303.84 77.5L362.487 8.125Z" fill="white"/>
<path d="M509.103 0H383.699V155H509.727C517.838 155 524.701 151.875 530.316 146.25C535.931 140.625 539.051 133.75 539.051 125.625V28.75C539.051 20.625 535.931 13.75 530.316 8.125C524.077 3.125 517.214 0 509.103 0ZM409.279 28.75C409.279 28.125 409.279 27.5 409.903 26.875C410.527 26.25 411.151 26.25 411.775 26.25H508.48C509.103 26.25 509.727 26.25 510.351 26.875C510.975 27.5 510.975 28.125 510.975 28.75V125.625C510.975 126.25 510.975 126.875 510.351 127.5C509.727 128.125 509.103 128.125 508.48 128.125H412.399C411.775 128.125 411.151 128.125 410.527 127.5C409.903 126.875 409.903 126.25 409.903 125.625V28.75H409.279Z" fill="white"/>
<path d="M701.265 8.75C695.65 3.125 688.787 0 680.677 0H583.972C575.861 0 568.998 3.125 563.383 8.75C557.768 14.375 554.648 21.25 554.648 29.375V155.625H580.228V102.5H683.172V155.625H708.752V28.75C710 21.25 706.88 14.375 701.265 8.75ZM580.852 28.75C580.852 28.125 580.852 27.5 581.476 26.875C582.1 26.25 582.724 26.25 583.348 26.25H680.053C680.677 26.25 681.3 26.25 681.924 26.875C682.548 27.5 682.548 28.125 682.548 28.75V75.625H580.852V28.75Z" fill="var(--accent)"/>
</g>
<defs>
<clipPath id="clip0_973_4332">
<rect width="710" height="210" fill="var(--accent)"/>
</clipPath>
</defs>
</svg>
